<?xml version="1.0" standalone="no"?>
<!DOCTYPE svg PUBLIC "-//W3C//DTD SVG 20010904//EN"
 "http://www.w3.org/TR/2001/REC-SVG-20010904/DTD/svg10.dtd">
<svg version="1.0" xmlns="http://www.w3.org/2000/svg"
 width="700.000000pt" height="700.000000pt" viewBox="0 0 700.000000 700.000000"
 preserveAspectRatio="xMidYMid meet">
<metadata>
Created by potrace 1.14, written by Peter Selinger 2001-2017
</metadata>
<g transform="translate(0.000000,700.000000) scale(0.100000,-0.100000)"
fill="#000000" stroke="none">
<path d="M3278 6995 c-1 -1 -42 -5 -89 -9 -47 -4 -95 -8 -106 -10 -11 -3 -44
-7 -74 -11 -479 -58 -1040 -274 -1474 -569 -103 -70 -87 -58 -230 -171 -395
-315 -725 -728 -954 -1196 -39 -80 -71 -149 -71 -153 0 -4 -10 -28 -21 -54
-66 -144 -153 -434 -194 -647 -50 -265 -60 -370 -60 -665 0 -249 6 -351 30
-515 133 -902 609 -1716 1327 -2266 57 -44 108 -82 113 -87 6 -4 48 -33 95
-63 488 -321 1050 -517 1620 -567 171 -14 679 -6 750 13 8 2 38 6 65 10 168
21 403 77 606 145 814 272 1498 833 1927 1581 65 113 176 339 210 429 11 30
32 85 46 122 73 189 157 542 182 768 3 30 8 66 11 80 2 14 6 140 8 280 2 227
-2 342 -19 475 -3 22 -8 58 -11 80 -20 168 -77 409 -142 604 -345 1043 -1167
1868 -2208 2219 -168 57 -420 119 -555 137 -19 3 -46 7 -60 10 -13 2 -52 7
-86 11 -33 3 -74 8 -90 10 -33 5 -540 14 -546 9z m1789 -946 c48 -10 98 -23
111 -29 13 -5 30 -10 38 -10 28 0 223 -98 301 -152 98 -67 244 -212 306 -306
280 -419 282 -928 6 -1348 -69 -105 -223 -258 -329 -327 -213 -138 -419 -199
-672 -199 -444 1 -853 255 -1057 655 -94 185 -130 343 -126 554 4 187 8 213
62 378 109 336 404 628 753 744 183 61 428 77 607 40z m-117 -4078 c154 -58
252 -231 222 -391 -43 -233 -267 -361 -488 -279 -82 31 -172 121 -203 204 -77
206 44 436 256 484 58 13 152 5 213 -18z"/>
</g>
</svg>
