<svg width="37" height="37" viewBox="0 0 37 37" fill="none" xmlns="http://www.w3.org/2000/svg">
<path fill-rule="evenodd" clip-rule="evenodd" d="M37 18.5C37 28.7173 28.7173 37 18.5 37C8.28273 37 0 28.7173 0 18.5C0 8.28273 8.28273 0 18.5 0C28.7173 0 37 8.28273 37 18.5ZM31.9004 11.2429C31.9004 14.7397 29.0657 17.5745 25.5688 17.5745C22.072 17.5745 19.2373 14.7397 19.2373 11.2429C19.2373 7.74608 22.072 4.91134 25.5688 4.91134C29.0657 4.91134 31.9004 7.74608 31.9004 11.2429ZM25.4622 30.2735C26.523 30.2735 27.3829 29.4136 27.3829 28.3528C27.3829 27.292 26.523 26.432 25.4622 26.432C24.4013 26.432 23.5414 27.292 23.5414 28.3528C23.5414 29.4136 24.4013 30.2735 25.4622 30.2735Z" fill="#1F354A"/>
</svg>
