<svg width="92" height="92" viewBox="0 0 92 92" fill="none" xmlns="http://www.w3.org/2000/svg">
<g clip-path="url(#clip0_39_180)">
<path fill-rule="evenodd" clip-rule="evenodd" d="M92 46C92 71.4051 71.4051 92 46 92C20.5949 92 0 71.4051 0 46C0 20.5949 20.5949 0 46 0C71.4051 0 92 20.5949 92 46ZM79.3199 27.9553C79.3199 36.6502 72.2714 43.6987 63.5766 43.6987C54.8817 43.6987 47.8332 36.6502 47.8332 27.9553C47.8332 19.2605 54.8817 12.212 63.5766 12.212C72.2714 12.212 79.3199 19.2605 79.3199 27.9553ZM63.3113 75.2748C65.949 75.2748 68.0872 73.1365 68.0872 70.4988C68.0872 67.8611 65.949 65.7229 63.3113 65.7229C60.6736 65.7229 58.5353 67.8611 58.5353 70.4988C58.5353 73.1365 60.6736 75.2748 63.3113 75.2748Z" fill="url(#paint0_linear_39_180)"/>
<path fill-rule="evenodd" clip-rule="evenodd" d="M92 46C92 71.4051 71.4051 92 46 92C20.5949 92 0 71.4051 0 46C0 20.5949 20.5949 0 46 0C71.4051 0 92 20.5949 92 46ZM79.3199 27.9553C79.3199 36.6502 72.2714 43.6987 63.5766 43.6987C54.8817 43.6987 47.8332 36.6502 47.8332 27.9553C47.8332 19.2605 54.8817 12.212 63.5766 12.212C72.2714 12.212 79.3199 19.2605 79.3199 27.9553ZM63.3113 75.2748C65.949 75.2748 68.0872 73.1365 68.0872 70.4988C68.0872 67.8611 65.949 65.7229 63.3113 65.7229C60.6736 65.7229 58.5353 67.8611 58.5353 70.4988C58.5353 73.1365 60.6736 75.2748 63.3113 75.2748Z" fill="url(#paint1_radial_39_180)"/>
<path fill-rule="evenodd" clip-rule="evenodd" d="M92 46C92 71.4051 71.4051 92 46 92C20.5949 92 0 71.4051 0 46C0 20.5949 20.5949 0 46 0C71.4051 0 92 20.5949 92 46ZM79.3199 27.9553C79.3199 36.6502 72.2714 43.6987 63.5766 43.6987C54.8817 43.6987 47.8332 36.6502 47.8332 27.9553C47.8332 19.2605 54.8817 12.212 63.5766 12.212C72.2714 12.212 79.3199 19.2605 79.3199 27.9553ZM63.3113 75.2748C65.949 75.2748 68.0872 73.1365 68.0872 70.4988C68.0872 67.8611 65.949 65.7229 63.3113 65.7229C60.6736 65.7229 58.5353 67.8611 58.5353 70.4988C58.5353 73.1365 60.6736 75.2748 63.3113 75.2748Z" fill="url(#paint2_radial_39_180)"/>
</g>
<defs>
<linearGradient id="paint0_linear_39_180" x1="84.5018" y1="82.5" x2="76.4039" y2="29.938" gradientUnits="userSpaceOnUse">
<stop stop-color="#FF6FBD"/>
<stop offset="1" stop-color="#D8368E"/>
</linearGradient>
<radialGradient id="paint1_radial_39_180" cx="0" cy="0" r="1" gradientUnits="userSpaceOnUse" gradientTransform="translate(0.501835 12.5) rotate(89.6206) scale(75.5017 75.5016)">
<stop stop-color="#1878D0"/>
<stop offset="0.942708" stop-color="#1878D0" stop-opacity="0"/>
</radialGradient>
<radialGradient id="paint2_radial_39_180" cx="0" cy="0" r="1" gradientUnits="userSpaceOnUse" gradientTransform="translate(-19.4982 67.5) rotate(31.1757) scale(69.5432)">
<stop stop-color="#41DAFC"/>
<stop offset="1" stop-color="#72A6D6" stop-opacity="0"/>
</radialGradient>
<clipPath id="clip0_39_180">
<rect width="92" height="92" fill="white"/>
</clipPath>
</defs>
</svg>
