<svg width="200" height="200" viewBox="0 0 200 200" fill="none" xmlns="http://www.w3.org/2000/svg">
<rect width="200" height="200" fill="white"/>
<path fill-rule="evenodd" clip-rule="evenodd" d="M146 100C146 125.405 125.405 146 100 146C74.5949 146 54 125.405 54 100C54 74.5949 74.5949 54 100 54C125.405 54 146 74.5949 146 100ZM133.32 81.9553C133.32 90.6502 126.271 97.6987 117.577 97.6987C108.882 97.6987 101.833 90.6502 101.833 81.9553C101.833 73.2605 108.882 66.212 117.577 66.212C126.271 66.212 133.32 73.2605 133.32 81.9553ZM117.311 129.275C119.949 129.275 122.087 127.136 122.087 124.499C122.087 121.861 119.949 119.723 117.311 119.723C114.674 119.723 112.535 121.861 112.535 124.499C112.535 127.136 114.674 129.275 117.311 129.275Z" fill="url(#paint0_linear_253_102)"/>
<path fill-rule="evenodd" clip-rule="evenodd" d="M146 100C146 125.405 125.405 146 100 146C74.5949 146 54 125.405 54 100C54 74.5949 74.5949 54 100 54C125.405 54 146 74.5949 146 100ZM133.32 81.9553C133.32 90.6502 126.271 97.6987 117.577 97.6987C108.882 97.6987 101.833 90.6502 101.833 81.9553C101.833 73.2605 108.882 66.212 117.577 66.212C126.271 66.212 133.32 73.2605 133.32 81.9553ZM117.311 129.275C119.949 129.275 122.087 127.136 122.087 124.499C122.087 121.861 119.949 119.723 117.311 119.723C114.674 119.723 112.535 121.861 112.535 124.499C112.535 127.136 114.674 129.275 117.311 129.275Z" fill="url(#paint1_radial_253_102)"/>
<path fill-rule="evenodd" clip-rule="evenodd" d="M146 100C146 125.405 125.405 146 100 146C74.5949 146 54 125.405 54 100C54 74.5949 74.5949 54 100 54C125.405 54 146 74.5949 146 100ZM133.32 81.9553C133.32 90.6502 126.271 97.6987 117.577 97.6987C108.882 97.6987 101.833 90.6502 101.833 81.9553C101.833 73.2605 108.882 66.212 117.577 66.212C126.271 66.212 133.32 73.2605 133.32 81.9553ZM117.311 129.275C119.949 129.275 122.087 127.136 122.087 124.499C122.087 121.861 119.949 119.723 117.311 119.723C114.674 119.723 112.535 121.861 112.535 124.499C112.535 127.136 114.674 129.275 117.311 129.275Z" fill="url(#paint2_radial_253_102)"/>
<defs>
<linearGradient id="paint0_linear_253_102" x1="145.061" y1="53.5208" x2="55.2478" y2="54.0318" gradientUnits="userSpaceOnUse">
<stop stop-color="#FF6FBD"/>
<stop offset="1" stop-color="#D8368E"/>
</linearGradient>
<radialGradient id="paint1_radial_253_102" cx="0" cy="0" r="1" gradientUnits="userSpaceOnUse" gradientTransform="translate(54 146) scale(92 92)">
<stop stop-color="#1878D0"/>
<stop offset="0.942708" stop-color="#1878D0" stop-opacity="0"/>
</radialGradient>
<radialGradient id="paint2_radial_253_102" cx="0" cy="0" r="1" gradientUnits="userSpaceOnUse" gradientTransform="translate(136.656 143.844) rotate(-111) scale(79.555 79.555)">
<stop stop-color="#41DAFC"/>
<stop offset="0.168161" stop-color="#4AD1F5" stop-opacity="0.822917"/>
<stop offset="1" stop-color="#72A6D6" stop-opacity="0"/>
</radialGradient>
</defs>
</svg>
