<svg width="254" height="51" viewBox="0 0 254 51" fill="none" xmlns="http://www.w3.org/2000/svg">
<path fill-rule="evenodd" clip-rule="evenodd" d="M37 29.5C37 39.7173 28.7173 48 18.5 48C8.28273 48 0 39.7173 0 29.5C0 19.2827 8.28273 11 18.5 11C28.7173 11 37 19.2827 37 29.5ZM31.9004 22.2429C31.9004 25.7397 29.0657 28.5745 25.5688 28.5745C22.072 28.5745 19.2373 25.7397 19.2373 22.2429C19.2373 18.7461 22.072 15.9113 25.5688 15.9113C29.0657 15.9113 31.9004 18.7461 31.9004 22.2429ZM25.4622 41.2735C26.523 41.2735 27.3829 40.4136 27.3829 39.3528C27.3829 38.292 26.523 37.432 25.4622 37.432C24.4013 37.432 23.5414 38.292 23.5414 39.3528C23.5414 40.4136 24.4013 41.2735 25.4622 41.2735Z" fill="#1F354A"/>
<path d="M52.4531 35.75H53.6562L49.1875 44H47.8125L43.3438 35.75H44.5469L48.5 43.3125L52.4531 35.75ZM54.4812 35.75H55.5125V44H54.4812V35.75ZM62.2242 39.3594C62.79 39.3594 63.2752 39.3826 63.6798 39.4292C64.0844 39.4757 64.4246 39.5456 64.7003 39.6387C64.9796 39.7282 65.2016 39.841 65.3663 39.9771C65.531 40.1131 65.6581 40.2689 65.7477 40.4443C65.8372 40.6162 65.8945 40.8096 65.9195 41.0244C65.9482 41.2393 65.9625 41.472 65.9625 41.7227C65.9625 41.9733 65.9392 42.2096 65.8927 42.4316C65.8497 42.6501 65.7709 42.8506 65.6563 43.0332C65.5418 43.2158 65.386 43.3787 65.1891 43.522C64.9921 43.6652 64.7415 43.7869 64.4371 43.8872C64.1327 43.9875 63.7657 44.0627 63.336 44.1128C62.9099 44.1665 62.4104 44.1934 61.8375 44.1934H60.4625C59.9469 44.1934 59.4957 44.1737 59.109 44.1343C58.7223 44.0949 58.3893 44.0358 58.11 43.957C57.8307 43.8747 57.5997 43.7726 57.4171 43.6509C57.2345 43.5256 57.0877 43.3805 56.9767 43.2158C56.8692 43.0475 56.794 42.8577 56.7511 42.6465C56.7081 42.4316 56.6866 42.1953 56.6866 41.9375H57.7179C57.7179 42.2598 57.7644 42.5122 57.8575 42.6948C57.9506 42.8774 58.1046 43.0153 58.3194 43.1084C58.5343 43.1979 58.8154 43.2552 59.1627 43.2803C59.5136 43.3018 59.9469 43.3125 60.4625 43.3125H61.8375C62.4391 43.3125 62.9386 43.2839 63.336 43.2266C63.7335 43.1693 64.0504 43.078 64.2867 42.9526C64.523 42.8273 64.6896 42.6644 64.7862 42.4639C64.8829 42.2598 64.9312 42.0127 64.9312 41.7227C64.9312 41.4326 64.8972 41.1909 64.8292 40.9976C64.7647 40.8042 64.634 40.6502 64.4371 40.5356C64.2437 40.4211 63.9698 40.3405 63.6153 40.2939C63.2608 40.2438 62.7971 40.2188 62.2242 40.2188H60.8062C60.176 40.2188 59.6354 40.1955 59.1842 40.1489C58.7366 40.1024 58.3606 40.0361 58.0562 39.9502C57.7519 39.8607 57.5084 39.7515 57.3258 39.6226C57.1432 39.4901 57.0035 39.3397 56.9068 39.1714C56.8137 39.0031 56.7529 38.8169 56.7242 38.6128C56.6956 38.4051 56.6812 38.1813 56.6812 37.9414C56.6812 37.6908 56.7027 37.458 56.7457 37.2432C56.7923 37.0283 56.8764 36.835 56.9981 36.6631C57.1199 36.4876 57.2864 36.3319 57.4977 36.1958C57.7089 36.0597 57.9793 35.9469 58.3087 35.8574C58.6417 35.7643 59.041 35.6945 59.5064 35.6479C59.9719 35.6014 60.5198 35.5781 61.15 35.5781H62.1812C62.6969 35.5781 63.148 35.5978 63.5348 35.6372C63.9215 35.673 64.2545 35.7321 64.5338 35.8145C64.8131 35.8932 65.044 35.9935 65.2267 36.1152C65.4129 36.2334 65.5597 36.3766 65.6671 36.5449C65.7781 36.7096 65.8551 36.8976 65.898 37.1089C65.941 37.3201 65.9625 37.5547 65.9625 37.8125H64.9312C64.9312 37.4902 64.8847 37.2378 64.7916 37.0552C64.6985 36.8726 64.5445 36.7365 64.3297 36.647C64.1148 36.5539 63.832 36.4966 63.4811 36.4751C63.1301 36.45 62.6969 36.4375 62.1812 36.4375H61.15C60.4625 36.4375 59.8967 36.4626 59.4527 36.5127C59.0087 36.5592 58.6578 36.6398 58.4 36.7544C58.1422 36.869 57.9632 37.0229 57.8629 37.2163C57.7626 37.4097 57.7125 37.6514 57.7125 37.9414C57.7125 38.1204 57.725 38.2798 57.7501 38.4194C57.7752 38.5591 57.8253 38.6826 57.9005 38.79C57.9793 38.8939 58.0885 38.9816 58.2281 39.0532C58.3678 39.1248 58.5522 39.1839 58.7813 39.2305C59.0105 39.277 59.2898 39.311 59.6192 39.3325C59.9522 39.3504 60.3479 39.3594 60.8062 39.3594H62.2242ZM67.1313 35.75H68.1625V44H67.1313V35.75ZM76.2116 35.5781C76.8418 35.5781 77.3718 35.6175 77.8015 35.6963C78.2347 35.7715 78.591 35.8879 78.8703 36.0454C79.1496 36.1994 79.3645 36.3945 79.5148 36.6309C79.6652 36.8672 79.7744 37.1447 79.8425 37.4634C79.9141 37.7821 79.9553 38.1419 79.966 38.543C79.9803 38.944 79.9875 39.388 79.9875 39.875C79.9875 40.362 79.9803 40.806 79.966 41.207C79.9553 41.6081 79.9141 41.9679 79.8425 42.2866C79.7744 42.6053 79.6652 42.8828 79.5148 43.1191C79.3645 43.3555 79.1496 43.5524 78.8703 43.71C78.591 43.8639 78.2347 43.9785 77.8015 44.0537C77.3718 44.1325 76.8418 44.1719 76.2116 44.1719H73.1071C72.4769 44.1719 71.9452 44.1325 71.5119 44.0537C71.0822 43.9785 70.7277 43.8639 70.4484 43.71C70.1691 43.5524 69.9525 43.3555 69.7985 43.1191C69.6481 42.8828 69.5371 42.6053 69.4655 42.2866C69.3975 41.9679 69.3581 41.6081 69.3474 41.207C69.3366 40.806 69.3312 40.362 69.3312 39.875C69.3312 39.388 69.3366 38.944 69.3474 38.543C69.3581 38.1419 69.3975 37.7821 69.4655 37.4634C69.5371 37.1447 69.6481 36.8672 69.7985 36.6309C69.9525 36.3945 70.1691 36.1994 70.4484 36.0454C70.7277 35.8879 71.0822 35.7715 71.5119 35.6963C71.9452 35.6175 72.4769 35.5781 73.1071 35.5781H76.2116ZM76.2116 43.3125C76.6664 43.3125 77.0495 43.3 77.361 43.2749C77.6761 43.2463 77.9357 43.1908 78.1398 43.1084C78.3439 43.026 78.5015 42.9079 78.6125 42.7539C78.7235 42.5999 78.8041 42.3958 78.8542 42.1416C78.9043 41.8874 78.933 41.5758 78.9401 41.207C78.9509 40.8346 78.9562 40.3906 78.9562 39.875C78.9562 39.3594 78.9509 38.9172 78.9401 38.5483C78.933 38.1759 78.9043 37.8626 78.8542 37.6084C78.8041 37.3542 78.7235 37.1501 78.6125 36.9961C78.5015 36.8421 78.3439 36.724 78.1398 36.6416C77.9393 36.5592 77.6815 36.5055 77.3664 36.4805C77.0549 36.4518 76.67 36.4375 76.2116 36.4375H73.1071C72.6488 36.4375 72.2621 36.4518 71.947 36.4805C71.6354 36.5055 71.3776 36.5592 71.1735 36.6416C70.9694 36.724 70.8119 36.8421 70.7009 36.9961C70.5899 37.1501 70.5093 37.3542 70.4592 37.6084C70.409 37.8626 70.3804 38.1759 70.3732 38.5483C70.3661 38.9172 70.3625 39.3594 70.3625 39.875C70.3625 40.3906 70.3661 40.8346 70.3732 41.207C70.384 41.5758 70.4144 41.8874 70.4646 42.1416C70.5147 42.3958 70.5935 42.5999 70.7009 42.7539C70.8119 42.9079 70.9694 43.026 71.1735 43.1084C71.3776 43.1908 71.6354 43.2463 71.947 43.2749C72.2621 43.3 72.6488 43.3125 73.1071 43.3125H76.2116ZM82.1875 44H81.1562V35.75H82.9663L90.5288 42.9688V35.75H91.5601V44H90.1851L82.1875 36.6094V44ZM105.728 35.75V36.6094H101.603V44H100.572V36.6094H96.4467V35.75H105.728ZM106.897 44V35.75H115.147V36.6094H107.928V39.3594H114.803V40.2188H107.928V43.1406H115.147V44H106.897ZM124.56 38.3281C124.56 37.8984 124.514 37.5583 124.42 37.3076C124.327 37.057 124.173 36.8672 123.958 36.7383C123.744 36.6094 123.461 36.527 123.11 36.4912C122.763 36.4554 122.331 36.4375 121.815 36.4375H119.404C118.945 36.4375 118.559 36.4518 118.244 36.4805C117.932 36.5055 117.674 36.5592 117.47 36.6416C117.266 36.724 117.109 36.8421 116.998 36.9961C116.887 37.1501 116.806 37.3542 116.756 37.6084C116.706 37.8626 116.677 38.1759 116.67 38.5483C116.663 38.9172 116.659 39.3594 116.659 39.875C116.659 40.3906 116.663 40.8346 116.67 41.207C116.681 41.5758 116.711 41.8874 116.761 42.1416C116.811 42.3958 116.89 42.5999 116.998 42.7539C117.109 42.9079 117.266 43.026 117.47 43.1084C117.674 43.1908 117.932 43.2463 118.244 43.2749C118.559 43.3 118.945 43.3125 119.404 43.3125H121.815C122.216 43.3125 122.562 43.3018 122.852 43.2803C123.142 43.2588 123.389 43.2194 123.593 43.1621C123.797 43.1048 123.962 43.026 124.087 42.9258C124.213 42.8255 124.309 42.7002 124.377 42.5498C124.449 42.3958 124.497 42.2132 124.522 42.002C124.548 41.7871 124.56 41.5365 124.56 41.25H125.591C125.591 41.5938 125.57 41.9053 125.527 42.1846C125.484 42.4603 125.407 42.7074 125.296 42.9258C125.188 43.1406 125.043 43.3268 124.861 43.4844C124.678 43.6419 124.447 43.7726 124.168 43.8765C123.889 43.9767 123.556 44.0501 123.169 44.0967C122.782 44.1468 122.331 44.1719 121.815 44.1719H119.404C118.774 44.1719 118.242 44.1325 117.809 44.0537C117.379 43.9785 117.024 43.8639 116.745 43.71C116.466 43.5524 116.249 43.3555 116.095 43.1191C115.945 42.8828 115.834 42.6053 115.762 42.2866C115.694 41.9679 115.655 41.6081 115.644 41.207C115.633 40.806 115.628 40.362 115.628 39.875C115.628 39.388 115.633 38.944 115.644 38.543C115.655 38.1419 115.694 37.7821 115.762 37.4634C115.834 37.1447 115.945 36.8672 116.095 36.6309C116.249 36.3945 116.466 36.1994 116.745 36.0454C117.024 35.8879 117.379 35.7715 117.809 35.6963C118.242 35.6175 118.774 35.5781 119.404 35.5781H121.815C122.331 35.5781 122.782 35.6032 123.169 35.6533C123.556 35.6999 123.889 35.7733 124.168 35.8735C124.447 35.9702 124.678 36.0938 124.861 36.2441C125.043 36.3945 125.188 36.5718 125.296 36.7759C125.407 36.98 125.484 37.2109 125.527 37.4688C125.57 37.7266 125.591 38.013 125.591 38.3281H124.56ZM135.359 35.75H136.39V44H135.359V40.2188H127.797V44H126.765V35.75H127.797V39.3594H135.359V35.75ZM138.934 44H137.903V35.75H139.713L147.275 42.9688V35.75H148.307V44H146.932L138.934 36.6094V44ZM156.361 35.5781C156.991 35.5781 157.521 35.6175 157.951 35.6963C158.384 35.7715 158.741 35.8879 159.02 36.0454C159.299 36.1994 159.514 36.3945 159.664 36.6309C159.815 36.8672 159.924 37.1447 159.992 37.4634C160.064 37.7821 160.105 38.1419 160.116 38.543C160.13 38.944 160.137 39.388 160.137 39.875C160.137 40.362 160.13 40.806 160.116 41.207C160.105 41.6081 160.064 41.9679 159.992 42.2866C159.924 42.6053 159.815 42.8828 159.664 43.1191C159.514 43.3555 159.299 43.5524 159.02 43.71C158.741 43.8639 158.384 43.9785 157.951 44.0537C157.521 44.1325 156.991 44.1719 156.361 44.1719H153.257C152.627 44.1719 152.095 44.1325 151.662 44.0537C151.232 43.9785 150.877 43.8639 150.598 43.71C150.319 43.5524 150.102 43.3555 149.948 43.1191C149.798 42.8828 149.687 42.6053 149.615 42.2866C149.547 41.9679 149.508 41.6081 149.497 41.207C149.486 40.806 149.481 40.362 149.481 39.875C149.481 39.388 149.486 38.944 149.497 38.543C149.508 38.1419 149.547 37.7821 149.615 37.4634C149.687 37.1447 149.798 36.8672 149.948 36.6309C150.102 36.3945 150.319 36.1994 150.598 36.0454C150.877 35.8879 151.232 35.7715 151.662 35.6963C152.095 35.6175 152.627 35.5781 153.257 35.5781H156.361ZM156.361 43.3125C156.816 43.3125 157.199 43.3 157.511 43.2749C157.826 43.2463 158.085 43.1908 158.289 43.1084C158.494 43.026 158.651 42.9079 158.762 42.7539C158.873 42.5999 158.954 42.3958 159.004 42.1416C159.054 41.8874 159.083 41.5758 159.09 41.207C159.1 40.8346 159.106 40.3906 159.106 39.875C159.106 39.3594 159.1 38.9172 159.09 38.5483C159.083 38.1759 159.054 37.8626 159.004 37.6084C158.954 37.3542 158.873 37.1501 158.762 36.9961C158.651 36.8421 158.494 36.724 158.289 36.6416C158.089 36.5592 157.831 36.5055 157.516 36.4805C157.204 36.4518 156.82 36.4375 156.361 36.4375H153.257C152.798 36.4375 152.412 36.4518 152.097 36.4805C151.785 36.5055 151.527 36.5592 151.323 36.6416C151.119 36.724 150.961 36.8421 150.85 36.9961C150.739 37.1501 150.659 37.3542 150.609 37.6084C150.559 37.8626 150.53 38.1759 150.523 38.5483C150.516 38.9172 150.512 39.3594 150.512 39.875C150.512 40.3906 150.516 40.8346 150.523 41.207C150.534 41.5758 150.564 41.8874 150.614 42.1416C150.664 42.3958 150.743 42.5999 150.85 42.7539C150.961 42.9079 151.119 43.026 151.323 43.1084C151.527 43.1908 151.785 43.2463 152.097 43.2749C152.412 43.3 152.798 43.3125 153.257 43.3125H156.361ZM161.306 44V35.75H162.337V43.1406H168.868V44H161.306ZM176.23 35.5781C176.86 35.5781 177.39 35.6175 177.82 35.6963C178.253 35.7715 178.609 35.8879 178.889 36.0454C179.168 36.1994 179.383 36.3945 179.533 36.6309C179.684 36.8672 179.793 37.1447 179.861 37.4634C179.932 37.7821 179.974 38.1419 179.984 38.543C179.999 38.944 180.006 39.388 180.006 39.875C180.006 40.362 179.999 40.806 179.984 41.207C179.974 41.6081 179.932 41.9679 179.861 42.2866C179.793 42.6053 179.684 42.8828 179.533 43.1191C179.383 43.3555 179.168 43.5524 178.889 43.71C178.609 43.8639 178.253 43.9785 177.82 44.0537C177.39 44.1325 176.86 44.1719 176.23 44.1719H173.125C172.495 44.1719 171.964 44.1325 171.53 44.0537C171.101 43.9785 170.746 43.8639 170.467 43.71C170.188 43.5524 169.971 43.3555 169.817 43.1191C169.667 42.8828 169.556 42.6053 169.484 42.2866C169.416 41.9679 169.376 41.6081 169.366 41.207C169.355 40.806 169.35 40.362 169.35 39.875C169.35 39.388 169.355 38.944 169.366 38.543C169.376 38.1419 169.416 37.7821 169.484 37.4634C169.556 37.1447 169.667 36.8672 169.817 36.6309C169.971 36.3945 170.188 36.1994 170.467 36.0454C170.746 35.8879 171.101 35.7715 171.53 35.6963C171.964 35.6175 172.495 35.5781 173.125 35.5781H176.23ZM176.23 43.3125C176.685 43.3125 177.068 43.3 177.379 43.2749C177.694 43.2463 177.954 43.1908 178.158 43.1084C178.362 43.026 178.52 42.9079 178.631 42.7539C178.742 42.5999 178.822 42.3958 178.873 42.1416C178.923 41.8874 178.951 41.5758 178.958 41.207C178.969 40.8346 178.975 40.3906 178.975 39.875C178.975 39.3594 178.969 38.9172 178.958 38.5483C178.951 38.1759 178.923 37.8626 178.873 37.6084C178.822 37.3542 178.742 37.1501 178.631 36.9961C178.52 36.8421 178.362 36.724 178.158 36.6416C177.958 36.5592 177.7 36.5055 177.385 36.4805C177.073 36.4518 176.688 36.4375 176.23 36.4375H173.125C172.667 36.4375 172.28 36.4518 171.965 36.4805C171.654 36.5055 171.396 36.5592 171.192 36.6416C170.988 36.724 170.83 36.8421 170.719 36.9961C170.608 37.1501 170.528 37.3542 170.478 37.6084C170.427 37.8626 170.399 38.1759 170.392 38.5483C170.384 38.9172 170.381 39.3594 170.381 39.875C170.381 40.3906 170.384 40.8346 170.392 41.207C170.402 41.5758 170.433 41.8874 170.483 42.1416C170.533 42.3958 170.612 42.5999 170.719 42.7539C170.83 42.9079 170.988 43.026 171.192 43.1084C171.396 43.1908 171.654 43.2463 171.965 43.2749C172.28 43.3 172.667 43.3125 173.125 43.3125H176.23ZM190.117 38.3281C190.117 37.8984 190.071 37.5583 189.978 37.3076C189.885 37.057 189.731 36.8672 189.516 36.7383C189.301 36.6094 189.018 36.527 188.667 36.4912C188.316 36.4554 187.883 36.4375 187.367 36.4375H184.607C184.148 36.4375 183.762 36.4518 183.447 36.4805C183.135 36.5055 182.877 36.5592 182.673 36.6416C182.469 36.724 182.311 36.8421 182.2 36.9961C182.089 37.1501 182.009 37.3542 181.959 37.6084C181.909 37.8626 181.88 38.1759 181.873 38.5483C181.866 38.9172 181.862 39.3594 181.862 39.875C181.862 40.3906 181.866 40.8346 181.873 41.207C181.884 41.5758 181.914 41.8874 181.964 42.1416C182.014 42.3958 182.093 42.5999 182.2 42.7539C182.311 42.9079 182.469 43.026 182.673 43.1084C182.877 43.1908 183.135 43.2463 183.447 43.2749C183.762 43.3 184.148 43.3125 184.607 43.3125H187.373C187.774 43.3125 188.119 43.3018 188.409 43.2803C188.7 43.2588 188.947 43.2194 189.151 43.1621C189.355 43.1048 189.519 43.026 189.645 42.9258C189.77 42.8255 189.867 42.7002 189.935 42.5498C190.006 42.3958 190.055 42.2132 190.08 42.002C190.105 41.7871 190.117 41.5365 190.117 41.25V40.7344H185.982V39.875H191.149V41.25C191.149 41.5938 191.127 41.9053 191.084 42.1846C191.041 42.4603 190.964 42.7074 190.853 42.9258C190.746 43.1406 190.601 43.3268 190.418 43.4844C190.236 43.6419 190.005 43.7726 189.725 43.8765C189.446 43.9767 189.113 44.0501 188.726 44.0967C188.34 44.1468 187.888 44.1719 187.373 44.1719H184.607C183.977 44.1719 183.445 44.1325 183.012 44.0537C182.582 43.9785 182.227 43.8639 181.948 43.71C181.669 43.5524 181.452 43.3555 181.298 43.1191C181.148 42.8828 181.037 42.6053 180.965 42.2866C180.897 41.9679 180.858 41.6081 180.847 41.207C180.836 40.806 180.831 40.362 180.831 39.875C180.831 39.388 180.836 38.944 180.847 38.543C180.858 38.1419 180.897 37.7821 180.965 37.4634C181.037 37.1447 181.148 36.8672 181.298 36.6309C181.452 36.3945 181.669 36.1994 181.948 36.0454C182.227 35.8879 182.582 35.7715 183.012 35.6963C183.445 35.6175 183.977 35.5781 184.607 35.5781H187.367C187.883 35.5781 188.334 35.6032 188.721 35.6533C189.108 35.6999 189.441 35.7733 189.72 35.8735C189.999 35.9702 190.23 36.0938 190.413 36.2441C190.599 36.3945 190.746 36.5718 190.853 36.7759C190.964 36.98 191.041 37.2109 191.084 37.4688C191.127 37.7266 191.149 38.013 191.149 38.3281H190.117ZM191.979 35.75H193.354L197.135 39.7891L200.917 35.75H202.292L197.651 40.5625V44H196.62V40.5625L191.979 35.75Z" fill="#1F354A"/>
<path opacity="0.99" d="M57.428 26.766V30.42C56.5 30.6133 55.5913 30.7583 54.702 30.855C53.8127 30.9517 52.759 31 51.541 31C49.975 31 48.6507 30.8647 47.568 30.594C46.5047 30.3233 45.6443 29.8497 44.987 29.173C44.349 28.477 43.885 27.5007 43.595 26.244C43.305 24.9873 43.16 23.373 43.16 21.401C43.16 19.5063 43.305 17.95 43.595 16.732C43.885 15.514 44.349 14.5763 44.987 13.919C45.6443 13.2423 46.5047 12.7783 47.568 12.527C48.6507 12.2563 49.975 12.121 51.541 12.121C52.759 12.121 53.8127 12.1693 54.702 12.266C55.5913 12.3433 56.5 12.4883 57.428 12.701V16.471L57.341 16.529C56.529 16.3357 55.746 16.2003 54.992 16.123C54.238 16.0263 53.31 15.978 52.208 15.978C51.3187 15.978 50.584 16.0457 50.004 16.181C49.4433 16.297 48.9987 16.5387 48.67 16.906C48.3413 17.2733 48.1093 17.8147 47.974 18.53C47.858 19.2453 47.8 20.2023 47.8 21.401C47.8 22.6577 47.858 23.6727 47.974 24.446C48.1093 25.2 48.3413 25.7703 48.67 26.157C48.9987 26.5437 49.4433 26.8047 50.004 26.94C50.584 27.0753 51.3187 27.143 52.208 27.143C53.2907 27.143 54.209 27.114 54.963 27.056C55.7363 26.9787 56.5097 26.8433 57.283 26.65L57.428 26.766ZM76.7026 30.652V30.739H71.7726C71.6372 30.275 71.4729 29.7433 71.2796 29.144C71.1056 28.5447 70.9122 27.9067 70.6996 27.23H64.4356C64.0489 28.5833 63.6912 29.753 63.3626 30.739H58.4326V30.681L64.3776 12.382H70.7576L76.7026 30.652ZM67.5096 15.688C67.3162 16.674 67.0359 17.8727 66.6686 19.284C66.3012 20.6953 65.9146 22.1357 65.5086 23.605H69.6556C69.2302 22.1357 68.8339 20.6953 68.4666 19.284C68.0992 17.8727 67.8189 16.674 67.6256 15.688H67.5096ZM87.1249 29.811C86.7962 28.767 86.4579 27.6553 86.1099 26.476C85.7812 25.2967 85.4526 24.127 85.1239 22.967C84.7952 21.807 84.4956 20.7243 84.2249 19.719C83.9542 18.7137 83.7222 17.8437 83.5289 17.109C83.3356 16.3743 83.2002 15.8523 83.1229 15.543L83.0069 15.572C83.0649 15.92 83.1132 16.384 83.1519 16.964C83.1906 17.5247 83.2196 18.124 83.2389 18.762C83.2582 19.3807 83.2679 19.951 83.2679 20.473V30.739H78.8309V12.382H86.6029C86.8736 13.4067 87.1539 14.4893 87.4439 15.63C87.7532 16.7513 88.0529 17.8727 88.3429 18.994C88.6522 20.096 88.9229 21.1497 89.1549 22.155C89.3869 23.141 89.5512 24.0013 89.6479 24.736H89.7059C89.8026 24.0013 89.9572 23.141 90.1699 22.155C90.4019 21.169 90.6629 20.1153 90.9529 18.994C91.2429 17.8727 91.5426 16.7513 91.8519 15.63C92.1612 14.4893 92.4416 13.4067 92.6929 12.382H100.349V30.739H95.9699V20.473C95.9699 19.951 95.9796 19.3807 95.9989 18.762C96.0182 18.124 96.0472 17.5247 96.0859 16.964C96.1439 16.384 96.1922 15.92 96.2309 15.572L96.1149 15.543C96.0376 15.8523 95.9022 16.3743 95.7089 17.109C95.5156 17.8437 95.2739 18.7233 94.9839 19.748C94.7132 20.7533 94.4136 21.836 94.0849 22.996C93.7562 24.156 93.4179 25.3257 93.0699 26.505C92.7412 27.665 92.4222 28.767 92.1129 29.811H87.1249ZM119.465 26.041C119.465 27.5877 118.981 28.7573 118.015 29.55C117.067 30.3427 115.385 30.739 112.969 30.739H103.921V12.382H105.052H112.679C114.283 12.382 115.53 12.556 116.42 12.904C117.328 13.2327 117.966 13.7257 118.334 14.383C118.701 15.0403 118.885 15.862 118.885 16.848C118.885 18.2013 118.556 19.255 117.899 20.009C117.261 20.7437 116.052 21.1883 114.274 21.343V21.43C115.588 21.5267 116.623 21.749 117.377 22.097C118.131 22.4257 118.662 22.909 118.972 23.547C119.3 24.185 119.465 25.0163 119.465 26.041ZM111.403 16.036H108.561V19.632H111.403C112.35 19.632 113.036 19.516 113.462 19.284C113.887 19.0327 114.1 18.5493 114.1 17.834C114.1 17.138 113.887 16.6643 113.462 16.413C113.036 16.1617 112.35 16.036 111.403 16.036ZM111.983 23.431H108.561V27.114H111.983C112.93 27.114 113.616 26.9883 114.042 26.737C114.467 26.4663 114.68 25.9733 114.68 25.258C114.68 24.5233 114.467 24.04 114.042 23.808C113.616 23.5567 112.93 23.431 111.983 23.431ZM126.714 30.739H122.074V12.382H130.832C133.133 12.382 134.805 12.904 135.849 13.948C136.912 14.9727 137.444 16.4903 137.444 18.501C137.444 20.009 137.067 21.3043 136.313 22.387C135.559 23.4503 134.563 24.1173 133.326 24.388L133.297 24.475C133.78 24.7843 134.312 25.2967 134.892 26.012C135.472 26.7273 136.042 27.5103 136.603 28.361C137.183 29.1923 137.695 29.9753 138.14 30.71V30.739H132.746L129.614 26.099C129.343 25.693 129.121 25.403 128.947 25.229C128.792 25.055 128.599 24.9487 128.367 24.91C128.154 24.8713 127.806 24.852 127.323 24.852H126.714V30.739ZM130.078 16.152H126.714V21.082H130.078C131.045 21.082 131.712 20.8887 132.079 20.502C132.466 20.1153 132.659 19.487 132.659 18.617C132.659 17.747 132.466 17.1187 132.079 16.732C131.712 16.3453 131.045 16.152 130.078 16.152ZM145.405 30.739H140.765V12.382H145.405V30.739ZM148.893 30.739V12.382H156.926C158.531 12.382 159.875 12.5173 160.957 12.788C162.04 13.0393 162.91 13.4937 163.567 14.151C164.225 14.8083 164.698 15.7267 164.988 16.906C165.278 18.066 165.423 19.5643 165.423 21.401C165.423 23.315 165.278 24.881 164.988 26.099C164.698 27.317 164.225 28.2643 163.567 28.941C162.91 29.6177 162.04 30.0913 160.957 30.362C159.875 30.6133 158.531 30.739 156.926 30.739H148.893ZM156.259 16.297H153.533V26.824H156.259C157.381 26.824 158.26 26.6983 158.898 26.447C159.556 26.1957 160.02 25.6833 160.29 24.91C160.58 24.1367 160.725 22.967 160.725 21.401C160.725 19.9123 160.58 18.8103 160.29 18.095C160.02 17.3603 159.556 16.877 158.898 16.645C158.26 16.413 157.381 16.297 156.259 16.297ZM180.066 25.316C180.066 24.678 180.095 24.098 180.153 23.576L180.095 23.489C179.554 23.5663 178.964 23.6243 178.326 23.663C177.688 23.6823 177.098 23.6823 176.557 23.663V19.893L184.126 19.864V29.724C183.237 30.13 182.222 30.449 181.081 30.681C179.96 30.8937 178.529 31 176.789 31C174.469 31 172.652 30.6907 171.337 30.072C170.022 29.434 169.094 28.419 168.553 27.027C168.012 25.6157 167.741 23.7403 167.741 21.401C167.741 19.5063 167.954 17.95 168.379 16.732C168.824 15.514 169.462 14.5763 170.293 13.919C171.144 13.2423 172.178 12.7783 173.396 12.527C174.614 12.2563 176.006 12.121 177.572 12.121C178.5 12.121 179.428 12.1597 180.356 12.237C181.303 12.3143 182.241 12.4593 183.169 12.672V16.5L183.082 16.558C182.27 16.3647 181.458 16.2293 180.646 16.152C179.853 16.0747 179.051 16.036 178.239 16.036C177.06 16.036 176.025 16.1617 175.136 16.413C174.266 16.645 173.589 17.138 173.106 17.892C172.623 18.646 172.381 19.8157 172.381 21.401C172.381 22.967 172.507 24.1657 172.758 24.997C173.029 25.809 173.522 26.3697 174.237 26.679C174.972 26.969 176.016 27.114 177.369 27.114C177.543 27.114 177.814 27.114 178.181 27.114C178.548 27.0947 178.916 27.0753 179.283 27.056C179.65 27.0367 179.911 27.0077 180.066 26.969V25.316ZM187.324 30.739V12.382H200.954V16.152H191.964V19.632H199.765V23.402H191.964V26.969H200.954V30.739H187.324Z" fill="#1F354A"/>
</svg>
