<svg width="200" height="200" viewBox="0 0 200 200" fill="none" xmlns="http://www.w3.org/2000/svg">
<rect width="200" height="200" fill="white"/>
<path fill-rule="evenodd" clip-rule="evenodd" d="M162 100C162 134.242 134.242 162 100 162C65.7583 162 38 134.242 38 100C38 65.7583 65.7583 38 100 38C134.242 38 162 65.7583 162 100ZM144.909 75.6789C144.909 87.398 135.409 96.8983 123.69 96.8983C111.971 96.8983 102.471 87.398 102.471 75.6789C102.471 63.9598 111.971 54.4596 123.69 54.4596C135.409 54.4596 144.909 63.9598 144.909 75.6789ZM123.333 139.457C126.888 139.457 129.77 136.575 129.77 133.02C129.77 129.465 126.888 126.583 123.333 126.583C119.777 126.583 116.895 129.465 116.895 133.02C116.895 136.575 119.777 139.457 123.333 139.457Z" fill="url(#paint0_linear_259_147)"/>
<path fill-rule="evenodd" clip-rule="evenodd" d="M162 100C162 134.242 134.242 162 100 162C65.7583 162 38 134.242 38 100C38 65.7583 65.7583 38 100 38C134.242 38 162 65.7583 162 100ZM144.909 75.6789C144.909 87.398 135.409 96.8983 123.69 96.8983C111.971 96.8983 102.471 87.398 102.471 75.6789C102.471 63.9598 111.971 54.4596 123.69 54.4596C135.409 54.4596 144.909 63.9598 144.909 75.6789ZM123.333 139.457C126.888 139.457 129.77 136.575 129.77 133.02C129.77 129.465 126.888 126.583 123.333 126.583C119.777 126.583 116.895 129.465 116.895 133.02C116.895 136.575 119.777 139.457 123.333 139.457Z" fill="url(#paint1_radial_259_147)"/>
<path fill-rule="evenodd" clip-rule="evenodd" d="M162 100C162 134.242 134.242 162 100 162C65.7583 162 38 134.242 38 100C38 65.7583 65.7583 38 100 38C134.242 38 162 65.7583 162 100ZM144.909 75.6789C144.909 87.398 135.409 96.8983 123.69 96.8983C111.971 96.8983 102.471 87.398 102.471 75.6789C102.471 63.9598 111.971 54.4596 123.69 54.4596C135.409 54.4596 144.909 63.9598 144.909 75.6789ZM123.333 139.457C126.888 139.457 129.77 136.575 129.77 133.02C129.77 129.465 126.888 126.583 123.333 126.583C119.777 126.583 116.895 129.465 116.895 133.02C116.895 136.575 119.777 139.457 123.333 139.457Z" fill="url(#paint2_radial_259_147)"/>
<defs>
<linearGradient id="paint0_linear_259_147" x1="160.735" y1="37.3542" x2="39.6818" y2="38.0428" gradientUnits="userSpaceOnUse">
<stop stop-color="#FF6FBD"/>
<stop offset="1" stop-color="#D8368E"/>
</linearGradient>
<radialGradient id="paint1_radial_259_147" cx="0" cy="0" r="1" gradientUnits="userSpaceOnUse" gradientTransform="translate(38 162) scale(124 124)">
<stop stop-color="#1878D0"/>
<stop offset="0.942708" stop-color="#1878D0" stop-opacity="0"/>
</radialGradient>
<radialGradient id="paint2_radial_259_147" cx="0" cy="0" r="1" gradientUnits="userSpaceOnUse" gradientTransform="translate(149.406 159.094) rotate(-111) scale(107.226 107.226)">
<stop stop-color="#41DAFC"/>
<stop offset="0.168161" stop-color="#4AD1F5" stop-opacity="0.822917"/>
<stop offset="1" stop-color="#72A6D6" stop-opacity="0"/>
</radialGradient>
</defs>
</svg>
