<svg width="163" height="51" viewBox="0 0 163 51" fill="none" xmlns="http://www.w3.org/2000/svg">
<path d="M10.4531 35.75H11.6562L7.1875 44H5.8125L1.34375 35.75H2.54688L6.5 43.3125L10.4531 35.75ZM12.4812 35.75H13.5125V44H12.4812V35.75ZM20.2242 39.3594C20.79 39.3594 21.2752 39.3826 21.6798 39.4292C22.0844 39.4757 22.4246 39.5456 22.7003 39.6387C22.9796 39.7282 23.2016 39.841 23.3663 39.9771C23.531 40.1131 23.6581 40.2689 23.7477 40.4443C23.8372 40.6162 23.8945 40.8096 23.9195 41.0244C23.9482 41.2393 23.9625 41.472 23.9625 41.7227C23.9625 41.9733 23.9392 42.2096 23.8927 42.4316C23.8497 42.6501 23.7709 42.8506 23.6563 43.0332C23.5418 43.2158 23.386 43.3787 23.1891 43.522C22.9921 43.6652 22.7415 43.7869 22.4371 43.8872C22.1327 43.9875 21.7657 44.0627 21.336 44.1128C20.9099 44.1665 20.4104 44.1934 19.8375 44.1934H18.4625C17.9469 44.1934 17.4957 44.1737 17.109 44.1343C16.7223 44.0949 16.3893 44.0358 16.11 43.957C15.8307 43.8747 15.5997 43.7726 15.4171 43.6509C15.2345 43.5256 15.0877 43.3805 14.9767 43.2158C14.8692 43.0475 14.794 42.8577 14.7511 42.6465C14.7081 42.4316 14.6866 42.1953 14.6866 41.9375H15.7179C15.7179 42.2598 15.7644 42.5122 15.8575 42.6948C15.9506 42.8774 16.1046 43.0153 16.3194 43.1084C16.5343 43.1979 16.8154 43.2552 17.1627 43.2803C17.5136 43.3018 17.9469 43.3125 18.4625 43.3125H19.8375C20.4391 43.3125 20.9386 43.2839 21.336 43.2266C21.7335 43.1693 22.0504 43.078 22.2867 42.9526C22.523 42.8273 22.6896 42.6644 22.7862 42.4639C22.8829 42.2598 22.9312 42.0127 22.9312 41.7227C22.9312 41.4326 22.8972 41.1909 22.8292 40.9976C22.7647 40.8042 22.634 40.6502 22.4371 40.5356C22.2437 40.4211 21.9698 40.3405 21.6153 40.2939C21.2608 40.2438 20.7971 40.2188 20.2242 40.2188H18.8062C18.176 40.2188 17.6354 40.1955 17.1842 40.1489C16.7366 40.1024 16.3606 40.0361 16.0562 39.9502C15.7519 39.8607 15.5084 39.7515 15.3258 39.6226C15.1432 39.4901 15.0035 39.3397 14.9068 39.1714C14.8137 39.0031 14.7529 38.8169 14.7242 38.6128C14.6956 38.4051 14.6812 38.1813 14.6812 37.9414C14.6812 37.6908 14.7027 37.458 14.7457 37.2432C14.7923 37.0283 14.8764 36.835 14.9981 36.6631C15.1199 36.4876 15.2864 36.3319 15.4977 36.1958C15.7089 36.0597 15.9793 35.9469 16.3087 35.8574C16.6417 35.7643 17.041 35.6945 17.5064 35.6479C17.9719 35.6014 18.5198 35.5781 19.15 35.5781H20.1812C20.6969 35.5781 21.148 35.5978 21.5348 35.6372C21.9215 35.673 22.2545 35.7321 22.5338 35.8145C22.8131 35.8932 23.044 35.9935 23.2267 36.1152C23.4129 36.2334 23.5597 36.3766 23.6671 36.5449C23.7781 36.7096 23.8551 36.8976 23.898 37.1089C23.941 37.3201 23.9625 37.5547 23.9625 37.8125H22.9312C22.9312 37.4902 22.8847 37.2378 22.7916 37.0552C22.6985 36.8726 22.5445 36.7365 22.3297 36.647C22.1148 36.5539 21.832 36.4966 21.4811 36.4751C21.1301 36.45 20.6969 36.4375 20.1812 36.4375H19.15C18.4625 36.4375 17.8967 36.4626 17.4527 36.5127C17.0087 36.5592 16.6578 36.6398 16.4 36.7544C16.1422 36.869 15.9632 37.0229 15.8629 37.2163C15.7626 37.4097 15.7125 37.6514 15.7125 37.9414C15.7125 38.1204 15.725 38.2798 15.7501 38.4194C15.7752 38.5591 15.8253 38.6826 15.9005 38.79C15.9793 38.8939 16.0885 38.9816 16.2281 39.0532C16.3678 39.1248 16.5522 39.1839 16.7813 39.2305C17.0105 39.277 17.2898 39.311 17.6192 39.3325C17.9522 39.3504 18.3479 39.3594 18.8062 39.3594H20.2242ZM25.1313 35.75H26.1625V44H25.1313V35.75ZM34.2116 35.5781C34.8418 35.5781 35.3718 35.6175 35.8015 35.6963C36.2347 35.7715 36.591 35.8879 36.8703 36.0454C37.1496 36.1994 37.3645 36.3945 37.5148 36.6309C37.6652 36.8672 37.7744 37.1447 37.8425 37.4634C37.9141 37.7821 37.9553 38.1419 37.966 38.543C37.9803 38.944 37.9875 39.388 37.9875 39.875C37.9875 40.362 37.9803 40.806 37.966 41.207C37.9553 41.6081 37.9141 41.9679 37.8425 42.2866C37.7744 42.6053 37.6652 42.8828 37.5148 43.1191C37.3645 43.3555 37.1496 43.5524 36.8703 43.71C36.591 43.8639 36.2347 43.9785 35.8015 44.0537C35.3718 44.1325 34.8418 44.1719 34.2116 44.1719H31.1071C30.4769 44.1719 29.9452 44.1325 29.5119 44.0537C29.0822 43.9785 28.7277 43.8639 28.4484 43.71C28.1691 43.5524 27.9525 43.3555 27.7985 43.1191C27.6481 42.8828 27.5371 42.6053 27.4655 42.2866C27.3975 41.9679 27.3581 41.6081 27.3474 41.207C27.3366 40.806 27.3312 40.362 27.3312 39.875C27.3312 39.388 27.3366 38.944 27.3474 38.543C27.3581 38.1419 27.3975 37.7821 27.4655 37.4634C27.5371 37.1447 27.6481 36.8672 27.7985 36.6309C27.9525 36.3945 28.1691 36.1994 28.4484 36.0454C28.7277 35.8879 29.0822 35.7715 29.5119 35.6963C29.9452 35.6175 30.4769 35.5781 31.1071 35.5781H34.2116ZM34.2116 43.3125C34.6664 43.3125 35.0495 43.3 35.361 43.2749C35.6761 43.2463 35.9357 43.1908 36.1398 43.1084C36.3439 43.026 36.5015 42.9079 36.6125 42.7539C36.7235 42.5999 36.8041 42.3958 36.8542 42.1416C36.9043 41.8874 36.933 41.5758 36.9401 41.207C36.9509 40.8346 36.9562 40.3906 36.9562 39.875C36.9562 39.3594 36.9509 38.9172 36.9401 38.5483C36.933 38.1759 36.9043 37.8626 36.8542 37.6084C36.8041 37.3542 36.7235 37.1501 36.6125 36.9961C36.5015 36.8421 36.3439 36.724 36.1398 36.6416C35.9393 36.5592 35.6815 36.5055 35.3664 36.4805C35.0549 36.4518 34.67 36.4375 34.2116 36.4375H31.1071C30.6488 36.4375 30.2621 36.4518 29.947 36.4805C29.6354 36.5055 29.3776 36.5592 29.1735 36.6416C28.9694 36.724 28.8119 36.8421 28.7009 36.9961C28.5899 37.1501 28.5093 37.3542 28.4592 37.6084C28.409 37.8626 28.3804 38.1759 28.3732 38.5483C28.3661 38.9172 28.3625 39.3594 28.3625 39.875C28.3625 40.3906 28.3661 40.8346 28.3732 41.207C28.384 41.5758 28.4144 41.8874 28.4646 42.1416C28.5147 42.3958 28.5935 42.5999 28.7009 42.7539C28.8119 42.9079 28.9694 43.026 29.1735 43.1084C29.3776 43.1908 29.6354 43.2463 29.947 43.2749C30.2621 43.3 30.6488 43.3125 31.1071 43.3125H34.2116ZM40.1875 44H39.1562V35.75H40.9663L48.5288 42.9688V35.75H49.5601V44H48.1851L40.1875 36.6094V44ZM63.7279 35.75V36.6094H59.6029V44H58.5717V36.6094H54.4467V35.75H63.7279ZM64.8967 44V35.75H73.1467V36.6094H65.9279V39.3594H72.8029V40.2188H65.9279V43.1406H73.1467V44H64.8967ZM82.5601 38.3281C82.5601 37.8984 82.5135 37.5583 82.4204 37.3076C82.3273 37.057 82.1733 36.8672 81.9585 36.7383C81.7437 36.6094 81.4608 36.527 81.1099 36.4912C80.7625 36.4554 80.3311 36.4375 79.8154 36.4375H77.4038C76.9455 36.4375 76.5588 36.4518 76.2437 36.4805C75.9321 36.5055 75.6743 36.5592 75.4702 36.6416C75.2661 36.724 75.1086 36.8421 74.9976 36.9961C74.8866 37.1501 74.806 37.3542 74.7559 37.6084C74.7057 37.8626 74.6771 38.1759 74.6699 38.5483C74.6628 38.9172 74.6592 39.3594 74.6592 39.875C74.6592 40.3906 74.6628 40.8346 74.6699 41.207C74.6807 41.5758 74.7111 41.8874 74.7612 42.1416C74.8114 42.3958 74.8901 42.5999 74.9976 42.7539C75.1086 42.9079 75.2661 43.026 75.4702 43.1084C75.6743 43.1908 75.9321 43.2463 76.2437 43.2749C76.5588 43.3 76.9455 43.3125 77.4038 43.3125H79.8154C80.2165 43.3125 80.562 43.3018 80.8521 43.2803C81.1421 43.2588 81.3892 43.2194 81.5933 43.1621C81.7974 43.1048 81.9621 43.026 82.0874 42.9258C82.2127 42.8255 82.3094 42.7002 82.3774 42.5498C82.4491 42.3958 82.4974 42.2132 82.5225 42.002C82.5475 41.7871 82.5601 41.5365 82.5601 41.25H83.5913C83.5913 41.5938 83.5698 41.9053 83.5269 42.1846C83.4839 42.4603 83.4069 42.7074 83.2959 42.9258C83.1885 43.1406 83.0435 43.3268 82.8608 43.4844C82.6782 43.6419 82.4473 43.7726 82.168 43.8765C81.8887 43.9767 81.5557 44.0501 81.1689 44.0967C80.7822 44.1468 80.3311 44.1719 79.8154 44.1719H77.4038C76.7736 44.1719 76.2419 44.1325 75.8086 44.0537C75.3789 43.9785 75.0244 43.8639 74.7451 43.71C74.4658 43.5524 74.2492 43.3555 74.0952 43.1191C73.9448 42.8828 73.8338 42.6053 73.7622 42.2866C73.6942 41.9679 73.6548 41.6081 73.644 41.207C73.6333 40.806 73.6279 40.362 73.6279 39.875C73.6279 39.388 73.6333 38.944 73.644 38.543C73.6548 38.1419 73.6942 37.7821 73.7622 37.4634C73.8338 37.1447 73.9448 36.8672 74.0952 36.6309C74.2492 36.3945 74.4658 36.1994 74.7451 36.0454C75.0244 35.8879 75.3789 35.7715 75.8086 35.6963C76.2419 35.6175 76.7736 35.5781 77.4038 35.5781H79.8154C80.3311 35.5781 80.7822 35.6032 81.1689 35.6533C81.5557 35.6999 81.8887 35.7733 82.168 35.8735C82.4473 35.9702 82.6782 36.0938 82.8608 36.2441C83.0435 36.3945 83.1885 36.5718 83.2959 36.7759C83.4069 36.98 83.4839 37.2109 83.5269 37.4688C83.5698 37.7266 83.5913 38.013 83.5913 38.3281H82.5601ZM93.3592 35.75H94.3904V44H93.3592V40.2188H85.7967V44H84.7654V35.75H85.7967V39.3594H93.3592V35.75ZM96.9342 44H95.9029V35.75H97.713L105.275 42.9688V35.75H106.307V44H104.932L96.9342 36.6094V44ZM114.361 35.5781C114.991 35.5781 115.521 35.6175 115.951 35.6963C116.384 35.7715 116.741 35.8879 117.02 36.0454C117.299 36.1994 117.514 36.3945 117.664 36.6309C117.815 36.8672 117.924 37.1447 117.992 37.4634C118.064 37.7821 118.105 38.1419 118.116 38.543C118.13 38.944 118.137 39.388 118.137 39.875C118.137 40.362 118.13 40.806 118.116 41.207C118.105 41.6081 118.064 41.9679 117.992 42.2866C117.924 42.6053 117.815 42.8828 117.664 43.1191C117.514 43.3555 117.299 43.5524 117.02 43.71C116.741 43.8639 116.384 43.9785 115.951 44.0537C115.521 44.1325 114.991 44.1719 114.361 44.1719H111.257C110.627 44.1719 110.095 44.1325 109.662 44.0537C109.232 43.9785 108.877 43.8639 108.598 43.71C108.319 43.5524 108.102 43.3555 107.948 43.1191C107.798 42.8828 107.687 42.6053 107.615 42.2866C107.547 41.9679 107.508 41.6081 107.497 41.207C107.486 40.806 107.481 40.362 107.481 39.875C107.481 39.388 107.486 38.944 107.497 38.543C107.508 38.1419 107.547 37.7821 107.615 37.4634C107.687 37.1447 107.798 36.8672 107.948 36.6309C108.102 36.3945 108.319 36.1994 108.598 36.0454C108.877 35.8879 109.232 35.7715 109.662 35.6963C110.095 35.6175 110.627 35.5781 111.257 35.5781H114.361ZM114.361 43.3125C114.816 43.3125 115.199 43.3 115.511 43.2749C115.826 43.2463 116.085 43.1908 116.289 43.1084C116.494 43.026 116.651 42.9079 116.762 42.7539C116.873 42.5999 116.954 42.3958 117.004 42.1416C117.054 41.8874 117.083 41.5758 117.09 41.207C117.1 40.8346 117.106 40.3906 117.106 39.875C117.106 39.3594 117.1 38.9172 117.09 38.5483C117.083 38.1759 117.054 37.8626 117.004 37.6084C116.954 37.3542 116.873 37.1501 116.762 36.9961C116.651 36.8421 116.494 36.724 116.289 36.6416C116.089 36.5592 115.831 36.5055 115.516 36.4805C115.204 36.4518 114.82 36.4375 114.361 36.4375H111.257C110.798 36.4375 110.412 36.4518 110.097 36.4805C109.785 36.5055 109.527 36.5592 109.323 36.6416C109.119 36.724 108.961 36.8421 108.85 36.9961C108.739 37.1501 108.659 37.3542 108.609 37.6084C108.559 37.8626 108.53 38.1759 108.523 38.5483C108.516 38.9172 108.512 39.3594 108.512 39.875C108.512 40.3906 108.516 40.8346 108.523 41.207C108.534 41.5758 108.564 41.8874 108.614 42.1416C108.664 42.3958 108.743 42.5999 108.85 42.7539C108.961 42.9079 109.119 43.026 109.323 43.1084C109.527 43.1908 109.785 43.2463 110.097 43.2749C110.412 43.3 110.798 43.3125 111.257 43.3125H114.361ZM119.306 44V35.75H120.337V43.1406H126.868V44H119.306ZM134.23 35.5781C134.86 35.5781 135.39 35.6175 135.82 35.6963C136.253 35.7715 136.609 35.8879 136.889 36.0454C137.168 36.1994 137.383 36.3945 137.533 36.6309C137.684 36.8672 137.793 37.1447 137.861 37.4634C137.932 37.7821 137.974 38.1419 137.984 38.543C137.999 38.944 138.006 39.388 138.006 39.875C138.006 40.362 137.999 40.806 137.984 41.207C137.974 41.6081 137.932 41.9679 137.861 42.2866C137.793 42.6053 137.684 42.8828 137.533 43.1191C137.383 43.3555 137.168 43.5524 136.889 43.71C136.609 43.8639 136.253 43.9785 135.82 44.0537C135.39 44.1325 134.86 44.1719 134.23 44.1719H131.125C130.495 44.1719 129.964 44.1325 129.53 44.0537C129.101 43.9785 128.746 43.8639 128.467 43.71C128.188 43.5524 127.971 43.3555 127.817 43.1191C127.667 42.8828 127.556 42.6053 127.484 42.2866C127.416 41.9679 127.376 41.6081 127.366 41.207C127.355 40.806 127.35 40.362 127.35 39.875C127.35 39.388 127.355 38.944 127.366 38.543C127.376 38.1419 127.416 37.7821 127.484 37.4634C127.556 37.1447 127.667 36.8672 127.817 36.6309C127.971 36.3945 128.188 36.1994 128.467 36.0454C128.746 35.8879 129.101 35.7715 129.53 35.6963C129.964 35.6175 130.495 35.5781 131.125 35.5781H134.23ZM134.23 43.3125C134.685 43.3125 135.068 43.3 135.379 43.2749C135.694 43.2463 135.954 43.1908 136.158 43.1084C136.362 43.026 136.52 42.9079 136.631 42.7539C136.742 42.5999 136.822 42.3958 136.873 42.1416C136.923 41.8874 136.951 41.5758 136.958 41.207C136.969 40.8346 136.975 40.3906 136.975 39.875C136.975 39.3594 136.969 38.9172 136.958 38.5483C136.951 38.1759 136.923 37.8626 136.873 37.6084C136.822 37.3542 136.742 37.1501 136.631 36.9961C136.52 36.8421 136.362 36.724 136.158 36.6416C135.958 36.5592 135.7 36.5055 135.385 36.4805C135.073 36.4518 134.688 36.4375 134.23 36.4375H131.125C130.667 36.4375 130.28 36.4518 129.965 36.4805C129.654 36.5055 129.396 36.5592 129.192 36.6416C128.988 36.724 128.83 36.8421 128.719 36.9961C128.608 37.1501 128.528 37.3542 128.478 37.6084C128.427 37.8626 128.399 38.1759 128.392 38.5483C128.384 38.9172 128.381 39.3594 128.381 39.875C128.381 40.3906 128.384 40.8346 128.392 41.207C128.402 41.5758 128.433 41.8874 128.483 42.1416C128.533 42.3958 128.612 42.5999 128.719 42.7539C128.83 42.9079 128.988 43.026 129.192 43.1084C129.396 43.1908 129.654 43.2463 129.965 43.2749C130.28 43.3 130.667 43.3125 131.125 43.3125H134.23ZM148.117 38.3281C148.117 37.8984 148.071 37.5583 147.978 37.3076C147.885 37.057 147.731 36.8672 147.516 36.7383C147.301 36.6094 147.018 36.527 146.667 36.4912C146.316 36.4554 145.883 36.4375 145.367 36.4375H142.607C142.148 36.4375 141.762 36.4518 141.447 36.4805C141.135 36.5055 140.877 36.5592 140.673 36.6416C140.469 36.724 140.311 36.8421 140.2 36.9961C140.089 37.1501 140.009 37.3542 139.959 37.6084C139.909 37.8626 139.88 38.1759 139.873 38.5483C139.866 38.9172 139.862 39.3594 139.862 39.875C139.862 40.3906 139.866 40.8346 139.873 41.207C139.884 41.5758 139.914 41.8874 139.964 42.1416C140.014 42.3958 140.093 42.5999 140.2 42.7539C140.311 42.9079 140.469 43.026 140.673 43.1084C140.877 43.1908 141.135 43.2463 141.447 43.2749C141.762 43.3 142.148 43.3125 142.607 43.3125H145.373C145.774 43.3125 146.119 43.3018 146.409 43.2803C146.7 43.2588 146.947 43.2194 147.151 43.1621C147.355 43.1048 147.519 43.026 147.645 42.9258C147.77 42.8255 147.867 42.7002 147.935 42.5498C148.006 42.3958 148.055 42.2132 148.08 42.002C148.105 41.7871 148.117 41.5365 148.117 41.25V40.7344H143.982V39.875H149.149V41.25C149.149 41.5938 149.127 41.9053 149.084 42.1846C149.041 42.4603 148.964 42.7074 148.853 42.9258C148.746 43.1406 148.601 43.3268 148.418 43.4844C148.236 43.6419 148.005 43.7726 147.725 43.8765C147.446 43.9767 147.113 44.0501 146.726 44.0967C146.34 44.1468 145.888 44.1719 145.373 44.1719H142.607C141.977 44.1719 141.445 44.1325 141.012 44.0537C140.582 43.9785 140.227 43.8639 139.948 43.71C139.669 43.5524 139.452 43.3555 139.298 43.1191C139.148 42.8828 139.037 42.6053 138.965 42.2866C138.897 41.9679 138.858 41.6081 138.847 41.207C138.836 40.806 138.831 40.362 138.831 39.875C138.831 39.388 138.836 38.944 138.847 38.543C138.858 38.1419 138.897 37.7821 138.965 37.4634C139.037 37.1447 139.148 36.8672 139.298 36.6309C139.452 36.3945 139.669 36.1994 139.948 36.0454C140.227 35.8879 140.582 35.7715 141.012 35.6963C141.445 35.6175 141.977 35.5781 142.607 35.5781H145.367C145.883 35.5781 146.334 35.6032 146.721 35.6533C147.108 35.6999 147.441 35.7733 147.72 35.8735C147.999 35.9702 148.23 36.0938 148.413 36.2441C148.599 36.3945 148.746 36.5718 148.853 36.7759C148.964 36.98 149.041 37.2109 149.084 37.4688C149.127 37.7266 149.149 38.013 149.149 38.3281H148.117ZM149.979 35.75H151.354L155.135 39.7891L158.917 35.75H160.292L155.651 40.5625V44H154.62V40.5625L149.979 35.75Z" fill="white"/>
<path opacity="0.99" d="M15.428 26.766V30.42C14.5 30.6133 13.5913 30.7583 12.702 30.855C11.8127 30.9517 10.759 31 9.541 31C7.975 31 6.65067 30.8647 5.568 30.594C4.50467 30.3233 3.64433 29.8497 2.987 29.173C2.349 28.477 1.885 27.5007 1.595 26.244C1.305 24.9873 1.16 23.373 1.16 21.401C1.16 19.5063 1.305 17.95 1.595 16.732C1.885 15.514 2.349 14.5763 2.987 13.919C3.64433 13.2423 4.50467 12.7783 5.568 12.527C6.65067 12.2563 7.975 12.121 9.541 12.121C10.759 12.121 11.8127 12.1693 12.702 12.266C13.5913 12.3433 14.5 12.4883 15.428 12.701V16.471L15.341 16.529C14.529 16.3357 13.746 16.2003 12.992 16.123C12.238 16.0263 11.31 15.978 10.208 15.978C9.31867 15.978 8.584 16.0457 8.004 16.181C7.44333 16.297 6.99867 16.5387 6.67 16.906C6.34133 17.2733 6.10933 17.8147 5.974 18.53C5.858 19.2453 5.8 20.2023 5.8 21.401C5.8 22.6577 5.858 23.6727 5.974 24.446C6.10933 25.2 6.34133 25.7703 6.67 26.157C6.99867 26.5437 7.44333 26.8047 8.004 26.94C8.584 27.0753 9.31867 27.143 10.208 27.143C11.2907 27.143 12.209 27.114 12.963 27.056C13.7363 26.9787 14.5097 26.8433 15.283 26.65L15.428 26.766ZM34.7026 30.652V30.739H29.7726C29.6372 30.275 29.4729 29.7433 29.2796 29.144C29.1056 28.5447 28.9122 27.9067 28.6996 27.23H22.4356C22.0489 28.5833 21.6912 29.753 21.3626 30.739H16.4326V30.681L22.3776 12.382H28.7576L34.7026 30.652ZM25.5096 15.688C25.3162 16.674 25.0359 17.8727 24.6686 19.284C24.3012 20.6953 23.9146 22.1357 23.5086 23.605H27.6556C27.2302 22.1357 26.8339 20.6953 26.4666 19.284C26.0992 17.8727 25.8189 16.674 25.6256 15.688H25.5096ZM45.1249 29.811C44.7962 28.767 44.4579 27.6553 44.1099 26.476C43.7812 25.2967 43.4526 24.127 43.1239 22.967C42.7952 21.807 42.4956 20.7243 42.2249 19.719C41.9542 18.7137 41.7222 17.8437 41.5289 17.109C41.3356 16.3743 41.2002 15.8523 41.1229 15.543L41.0069 15.572C41.0649 15.92 41.1132 16.384 41.1519 16.964C41.1906 17.5247 41.2196 18.124 41.2389 18.762C41.2582 19.3807 41.2679 19.951 41.2679 20.473V30.739H36.8309V12.382H44.6029C44.8736 13.4067 45.1539 14.4893 45.4439 15.63C45.7532 16.7513 46.0529 17.8727 46.3429 18.994C46.6522 20.096 46.9229 21.1497 47.1549 22.155C47.3869 23.141 47.5512 24.0013 47.6479 24.736H47.7059C47.8026 24.0013 47.9572 23.141 48.1699 22.155C48.4019 21.169 48.6629 20.1153 48.9529 18.994C49.2429 17.8727 49.5426 16.7513 49.8519 15.63C50.1612 14.4893 50.4416 13.4067 50.6929 12.382H58.3489V30.739H53.9699V20.473C53.9699 19.951 53.9796 19.3807 53.9989 18.762C54.0182 18.124 54.0472 17.5247 54.0859 16.964C54.1439 16.384 54.1922 15.92 54.2309 15.572L54.1149 15.543C54.0376 15.8523 53.9022 16.3743 53.7089 17.109C53.5156 17.8437 53.2739 18.7233 52.9839 19.748C52.7132 20.7533 52.4136 21.836 52.0849 22.996C51.7562 24.156 51.4179 25.3257 51.0699 26.505C50.7412 27.665 50.4222 28.767 50.1129 29.811H45.1249ZM77.4647 26.041C77.4647 27.5877 76.9813 28.7573 76.0147 29.55C75.0673 30.3427 73.3853 30.739 70.9687 30.739H61.9207V12.382H63.0517H70.6787C72.2833 12.382 73.5303 12.556 74.4197 12.904C75.3283 13.2327 75.9663 13.7257 76.3337 14.383C76.701 15.0403 76.8847 15.862 76.8847 16.848C76.8847 18.2013 76.556 19.255 75.8987 20.009C75.2607 20.7437 74.0523 21.1883 72.2737 21.343V21.43C73.5883 21.5267 74.6227 21.749 75.3767 22.097C76.1307 22.4257 76.6623 22.909 76.9717 23.547C77.3003 24.185 77.4647 25.0163 77.4647 26.041ZM69.4027 16.036H66.5607V19.632H69.4027C70.35 19.632 71.0363 19.516 71.4617 19.284C71.887 19.0327 72.0997 18.5493 72.0997 17.834C72.0997 17.138 71.887 16.6643 71.4617 16.413C71.0363 16.1617 70.35 16.036 69.4027 16.036ZM69.9827 23.431H66.5607V27.114H69.9827C70.93 27.114 71.6163 26.9883 72.0417 26.737C72.467 26.4663 72.6797 25.9733 72.6797 25.258C72.6797 24.5233 72.467 24.04 72.0417 23.808C71.6163 23.5567 70.93 23.431 69.9827 23.431ZM84.714 30.739H80.074V12.382H88.832C91.1327 12.382 92.805 12.904 93.849 13.948C94.9123 14.9727 95.444 16.4903 95.444 18.501C95.444 20.009 95.067 21.3043 94.313 22.387C93.559 23.4503 92.5633 24.1173 91.326 24.388L91.297 24.475C91.7803 24.7843 92.312 25.2967 92.892 26.012C93.472 26.7273 94.0423 27.5103 94.603 28.361C95.183 29.1923 95.6953 29.9753 96.14 30.71V30.739H90.746L87.614 26.099C87.3433 25.693 87.121 25.403 86.947 25.229C86.7923 25.055 86.599 24.9487 86.367 24.91C86.1543 24.8713 85.8063 24.852 85.323 24.852H84.714V30.739ZM88.078 16.152H84.714V21.082H88.078C89.0447 21.082 89.7117 20.8887 90.079 20.502C90.4657 20.1153 90.659 19.487 90.659 18.617C90.659 17.747 90.4657 17.1187 90.079 16.732C89.7117 16.3453 89.0447 16.152 88.078 16.152ZM103.405 30.739H98.7654V12.382H103.405V30.739ZM106.893 30.739V12.382H114.926C116.531 12.382 117.875 12.5173 118.957 12.788C120.04 13.0393 120.91 13.4937 121.567 14.151C122.225 14.8083 122.698 15.7267 122.988 16.906C123.278 18.066 123.423 19.5643 123.423 21.401C123.423 23.315 123.278 24.881 122.988 26.099C122.698 27.317 122.225 28.2643 121.567 28.941C120.91 29.6177 120.04 30.0913 118.957 30.362C117.875 30.6133 116.531 30.739 114.926 30.739H106.893ZM114.259 16.297H111.533V26.824H114.259C115.381 26.824 116.26 26.6983 116.898 26.447C117.556 26.1957 118.02 25.6833 118.29 24.91C118.58 24.1367 118.725 22.967 118.725 21.401C118.725 19.9123 118.58 18.8103 118.29 18.095C118.02 17.3603 117.556 16.877 116.898 16.645C116.26 16.413 115.381 16.297 114.259 16.297ZM138.066 25.316C138.066 24.678 138.095 24.098 138.153 23.576L138.095 23.489C137.554 23.5663 136.964 23.6243 136.326 23.663C135.688 23.6823 135.098 23.6823 134.557 23.663V19.893L142.126 19.864V29.724C141.237 30.13 140.222 30.449 139.081 30.681C137.96 30.8937 136.529 31 134.789 31C132.469 31 130.652 30.6907 129.337 30.072C128.022 29.434 127.094 28.419 126.553 27.027C126.012 25.6157 125.741 23.7403 125.741 21.401C125.741 19.5063 125.954 17.95 126.379 16.732C126.824 15.514 127.462 14.5763 128.293 13.919C129.144 13.2423 130.178 12.7783 131.396 12.527C132.614 12.2563 134.006 12.121 135.572 12.121C136.5 12.121 137.428 12.1597 138.356 12.237C139.303 12.3143 140.241 12.4593 141.169 12.672V16.5L141.082 16.558C140.27 16.3647 139.458 16.2293 138.646 16.152C137.853 16.0747 137.051 16.036 136.239 16.036C135.06 16.036 134.025 16.1617 133.136 16.413C132.266 16.645 131.589 17.138 131.106 17.892C130.623 18.646 130.381 19.8157 130.381 21.401C130.381 22.967 130.507 24.1657 130.758 24.997C131.029 25.809 131.522 26.3697 132.237 26.679C132.972 26.969 134.016 27.114 135.369 27.114C135.543 27.114 135.814 27.114 136.181 27.114C136.548 27.0947 136.916 27.0753 137.283 27.056C137.65 27.0367 137.911 27.0077 138.066 26.969V25.316ZM145.324 30.739V12.382H158.954V16.152H149.964V19.632H157.765V23.402H149.964V26.969H158.954V30.739H145.324Z" fill="white"/>
</svg>
