<svg width="200" height="200" viewBox="0 0 200 200" fill="none" xmlns="http://www.w3.org/2000/svg">
<g clip-path="url(#clip0_255_146)">
<rect width="200" height="200" fill="white"/>
<g clip-path="url(#clip1_255_146)">
<path fill-rule="evenodd" clip-rule="evenodd" d="M200 0H0V200H200V0ZM99.5 162C132.361 162 159 135.361 159 102.5C159 69.6391 132.361 43 99.5 43C66.6391 43 40 69.6391 40 102.5C40 135.361 66.6391 162 99.5 162ZM122.235 99.5233C133.481 99.5233 142.599 90.4062 142.599 79.1596C142.599 67.9131 133.481 58.7959 122.235 58.7959C110.988 58.7959 101.871 67.9131 101.871 79.1596C101.871 90.4062 110.988 99.5233 122.235 99.5233ZM128.069 134.189C128.069 137.6 125.304 140.366 121.892 140.366C118.48 140.366 115.714 137.6 115.714 134.189C115.714 130.777 118.48 128.011 121.892 128.011C125.304 128.011 128.069 130.777 128.069 134.189Z" fill="url(#paint0_linear_255_146)"/>
<path fill-rule="evenodd" clip-rule="evenodd" d="M200 0H0V200H200V0ZM99.5 162C132.361 162 159 135.361 159 102.5C159 69.6391 132.361 43 99.5 43C66.6391 43 40 69.6391 40 102.5C40 135.361 66.6391 162 99.5 162ZM122.235 99.5233C133.481 99.5233 142.599 90.4062 142.599 79.1596C142.599 67.9131 133.481 58.7959 122.235 58.7959C110.988 58.7959 101.871 67.9131 101.871 79.1596C101.871 90.4062 110.988 99.5233 122.235 99.5233ZM128.069 134.189C128.069 137.6 125.304 140.366 121.892 140.366C118.48 140.366 115.714 137.6 115.714 134.189C115.714 130.777 118.48 128.011 121.892 128.011C125.304 128.011 128.069 130.777 128.069 134.189Z" fill="url(#paint1_radial_255_146)"/>
<path fill-rule="evenodd" clip-rule="evenodd" d="M200 0H0V200H200V0ZM99.5 162C132.361 162 159 135.361 159 102.5C159 69.6391 132.361 43 99.5 43C66.6391 43 40 69.6391 40 102.5C40 135.361 66.6391 162 99.5 162ZM122.235 99.5233C133.481 99.5233 142.599 90.4062 142.599 79.1596C142.599 67.9131 133.481 58.7959 122.235 58.7959C110.988 58.7959 101.871 67.9131 101.871 79.1596C101.871 90.4062 110.988 99.5233 122.235 99.5233ZM128.069 134.189C128.069 137.6 125.304 140.366 121.892 140.366C118.48 140.366 115.714 137.6 115.714 134.189C115.714 130.777 118.48 128.011 121.892 128.011C125.304 128.011 128.069 130.777 128.069 134.189Z" fill="url(#paint2_radial_255_146)"/>
</g>
</g>
<defs>
<linearGradient id="paint0_linear_255_146" x1="197.959" y1="-1.04167" x2="2.7126" y2="0.0690289" gradientUnits="userSpaceOnUse">
<stop stop-color="#FF6FBD"/>
<stop offset="1" stop-color="#D8368E"/>
</linearGradient>
<radialGradient id="paint1_radial_255_146" cx="0" cy="0" r="1" gradientUnits="userSpaceOnUse" gradientTransform="translate(-1.6796e-06 200) scale(200 200)">
<stop stop-color="#1878D0"/>
<stop offset="0.942708" stop-color="#1878D0" stop-opacity="0"/>
</radialGradient>
<radialGradient id="paint2_radial_255_146" cx="0" cy="0" r="1" gradientUnits="userSpaceOnUse" gradientTransform="translate(179.688 195.312) rotate(-111) scale(172.946 172.946)">
<stop stop-color="#41DAFC"/>
<stop offset="0.168161" stop-color="#4AD1F5" stop-opacity="0.822917"/>
<stop offset="1" stop-color="#72A6D6" stop-opacity="0"/>
</radialGradient>
<clipPath id="clip0_255_146">
<rect width="200" height="200" fill="white"/>
</clipPath>
<clipPath id="clip1_255_146">
<rect width="200" height="200" fill="white"/>
</clipPath>
</defs>
</svg>
