<svg width="161" height="161" viewBox="0 0 161 161" fill="none" xmlns="http://www.w3.org/2000/svg">
<rect width="161" height="161" fill="white"/>
<g clip-path="url(#clip0_260_277)">
<path fill-rule="evenodd" clip-rule="evenodd" d="M161 0H0V161H161V0ZM80.0975 130.41C106.551 130.41 127.995 108.966 127.995 82.5125C127.995 56.0594 106.551 34.615 80.0975 34.615C53.6444 34.615 32.2 56.0594 32.2 82.5125C32.2 108.966 53.6444 130.41 80.0975 130.41ZM98.3991 80.1163C107.453 80.1163 114.792 72.777 114.792 63.7235C114.792 54.67 107.453 47.3307 98.3991 47.3307C89.3457 47.3307 82.0064 54.67 82.0064 63.7235C82.0064 72.777 89.3457 80.1163 98.3991 80.1163ZM103.096 108.022C103.096 110.768 100.869 112.995 98.123 112.995C95.3765 112.995 93.15 110.768 93.15 108.022C93.15 105.275 95.3765 103.049 98.123 103.049C100.869 103.049 103.096 105.275 103.096 108.022Z" fill="url(#paint0_linear_260_277)"/>
<path fill-rule="evenodd" clip-rule="evenodd" d="M161 0H0V161H161V0ZM80.0975 130.41C106.551 130.41 127.995 108.966 127.995 82.5125C127.995 56.0594 106.551 34.615 80.0975 34.615C53.6444 34.615 32.2 56.0594 32.2 82.5125C32.2 108.966 53.6444 130.41 80.0975 130.41ZM98.3991 80.1163C107.453 80.1163 114.792 72.777 114.792 63.7235C114.792 54.67 107.453 47.3307 98.3991 47.3307C89.3457 47.3307 82.0064 54.67 82.0064 63.7235C82.0064 72.777 89.3457 80.1163 98.3991 80.1163ZM103.096 108.022C103.096 110.768 100.869 112.995 98.123 112.995C95.3765 112.995 93.15 110.768 93.15 108.022C93.15 105.275 95.3765 103.049 98.123 103.049C100.869 103.049 103.096 105.275 103.096 108.022Z" fill="url(#paint1_radial_260_277)"/>
<path fill-rule="evenodd" clip-rule="evenodd" d="M161 0H0V161H161V0ZM80.0975 130.41C106.551 130.41 127.995 108.966 127.995 82.5125C127.995 56.0594 106.551 34.615 80.0975 34.615C53.6444 34.615 32.2 56.0594 32.2 82.5125C32.2 108.966 53.6444 130.41 80.0975 130.41ZM98.3991 80.1163C107.453 80.1163 114.792 72.777 114.792 63.7235C114.792 54.67 107.453 47.3307 98.3991 47.3307C89.3457 47.3307 82.0064 54.67 82.0064 63.7235C82.0064 72.777 89.3457 80.1163 98.3991 80.1163ZM103.096 108.022C103.096 110.768 100.869 112.995 98.123 112.995C95.3765 112.995 93.15 110.768 93.15 108.022C93.15 105.275 95.3765 103.049 98.123 103.049C100.869 103.049 103.096 105.275 103.096 108.022Z" fill="url(#paint2_radial_260_277)"/>
</g>
<defs>
<linearGradient id="paint0_linear_260_277" x1="159.357" y1="-0.838544" x2="2.18364" y2="0.0555683" gradientUnits="userSpaceOnUse">
<stop stop-color="#FF6FBD"/>
<stop offset="1" stop-color="#D8368E"/>
</linearGradient>
<radialGradient id="paint1_radial_260_277" cx="0" cy="0" r="1" gradientUnits="userSpaceOnUse" gradientTransform="translate(-1.35208e-06 161) scale(161 161)">
<stop stop-color="#1878D0"/>
<stop offset="0.942708" stop-color="#1878D0" stop-opacity="0"/>
</radialGradient>
<radialGradient id="paint2_radial_260_277" cx="0" cy="0" r="1" gradientUnits="userSpaceOnUse" gradientTransform="translate(144.648 157.227) rotate(-111) scale(139.221 139.221)">
<stop stop-color="#41DAFC"/>
<stop offset="0.168161" stop-color="#4AD1F5" stop-opacity="0.822917"/>
<stop offset="1" stop-color="#72A6D6" stop-opacity="0"/>
</radialGradient>
<clipPath id="clip0_260_277">
<rect width="161" height="161" rx="15.5633" fill="white"/>
</clipPath>
</defs>
</svg>
