<svg width="164" height="143" viewBox="0 0 164 143" fill="none" xmlns="http://www.w3.org/2000/svg">
<path fill-rule="evenodd" clip-rule="evenodd" d="M127 46C127 71.4051 106.405 92 81 92C55.5949 92 35 71.4051 35 46C35 20.5949 55.5949 0 81 0C106.405 0 127 20.5949 127 46ZM114.32 27.9553C114.32 36.6502 107.271 43.6987 98.5766 43.6987C89.8817 43.6987 82.8332 36.6502 82.8332 27.9553C82.8332 19.2605 89.8817 12.212 98.5766 12.212C107.271 12.212 114.32 19.2605 114.32 27.9553ZM98.3113 75.2748C100.949 75.2748 103.087 73.1365 103.087 70.4988C103.087 67.8611 100.949 65.7229 98.3113 65.7229C95.6736 65.7229 93.5353 67.8611 93.5353 70.4988C93.5353 73.1365 95.6736 75.2748 98.3113 75.2748Z" fill="url(#paint0_linear_29_76)"/>
<path fill-rule="evenodd" clip-rule="evenodd" d="M127 46C127 71.4051 106.405 92 81 92C55.5949 92 35 71.4051 35 46C35 20.5949 55.5949 0 81 0C106.405 0 127 20.5949 127 46ZM114.32 27.9553C114.32 36.6502 107.271 43.6987 98.5766 43.6987C89.8817 43.6987 82.8332 36.6502 82.8332 27.9553C82.8332 19.2605 89.8817 12.212 98.5766 12.212C107.271 12.212 114.32 19.2605 114.32 27.9553ZM98.3113 75.2748C100.949 75.2748 103.087 73.1365 103.087 70.4988C103.087 67.8611 100.949 65.7229 98.3113 65.7229C95.6736 65.7229 93.5353 67.8611 93.5353 70.4988C93.5353 73.1365 95.6736 75.2748 98.3113 75.2748Z" fill="url(#paint1_radial_29_76)"/>
<path fill-rule="evenodd" clip-rule="evenodd" d="M127 46C127 71.4051 106.405 92 81 92C55.5949 92 35 71.4051 35 46C35 20.5949 55.5949 0 81 0C106.405 0 127 20.5949 127 46ZM114.32 27.9553C114.32 36.6502 107.271 43.6987 98.5766 43.6987C89.8817 43.6987 82.8332 36.6502 82.8332 27.9553C82.8332 19.2605 89.8817 12.212 98.5766 12.212C107.271 12.212 114.32 19.2605 114.32 27.9553ZM98.3113 75.2748C100.949 75.2748 103.087 73.1365 103.087 70.4988C103.087 67.8611 100.949 65.7229 98.3113 65.7229C95.6736 65.7229 93.5353 67.8611 93.5353 70.4988C93.5353 73.1365 95.6736 75.2748 98.3113 75.2748Z" fill="url(#paint2_radial_29_76)"/>
<path d="M11.4531 127.75H12.6562L8.1875 136H6.8125L2.34375 127.75H3.54688L7.5 135.312L11.4531 127.75ZM13.4812 127.75H14.5125V136H13.4812V127.75ZM21.2242 131.359C21.79 131.359 22.2752 131.383 22.6798 131.429C23.0844 131.476 23.4246 131.546 23.7003 131.639C23.9796 131.728 24.2016 131.841 24.3663 131.977C24.531 132.113 24.6581 132.269 24.7477 132.444C24.8372 132.616 24.8945 132.81 24.9195 133.024C24.9482 133.239 24.9625 133.472 24.9625 133.723C24.9625 133.973 24.9392 134.21 24.8927 134.432C24.8497 134.65 24.7709 134.851 24.6563 135.033C24.5418 135.216 24.386 135.379 24.1891 135.522C23.9921 135.665 23.7415 135.787 23.4371 135.887C23.1327 135.987 22.7657 136.063 22.336 136.113C21.9099 136.167 21.4104 136.193 20.8375 136.193H19.4625C18.9469 136.193 18.4957 136.174 18.109 136.134C17.7223 136.095 17.3893 136.036 17.11 135.957C16.8307 135.875 16.5997 135.773 16.4171 135.651C16.2345 135.526 16.0877 135.381 15.9767 135.216C15.8692 135.048 15.794 134.858 15.7511 134.646C15.7081 134.432 15.6866 134.195 15.6866 133.938H16.7179C16.7179 134.26 16.7644 134.512 16.8575 134.695C16.9506 134.877 17.1046 135.015 17.3194 135.108C17.5343 135.198 17.8154 135.255 18.1627 135.28C18.5136 135.302 18.9469 135.312 19.4625 135.312H20.8375C21.4391 135.312 21.9386 135.284 22.336 135.227C22.7335 135.169 23.0504 135.078 23.2867 134.953C23.523 134.827 23.6896 134.664 23.7862 134.464C23.8829 134.26 23.9312 134.013 23.9312 133.723C23.9312 133.433 23.8972 133.191 23.8292 132.998C23.7647 132.804 23.634 132.65 23.4371 132.536C23.2437 132.421 22.9698 132.34 22.6153 132.294C22.2608 132.244 21.7971 132.219 21.2242 132.219H19.8062C19.176 132.219 18.6354 132.195 18.1842 132.149C17.7366 132.102 17.3606 132.036 17.0562 131.95C16.7519 131.861 16.5084 131.751 16.3258 131.623C16.1432 131.49 16.0035 131.34 15.9068 131.171C15.8137 131.003 15.7529 130.817 15.7242 130.613C15.6956 130.405 15.6812 130.181 15.6812 129.941C15.6812 129.691 15.7027 129.458 15.7457 129.243C15.7923 129.028 15.8764 128.835 15.9981 128.663C16.1199 128.488 16.2864 128.332 16.4977 128.196C16.7089 128.06 16.9793 127.947 17.3087 127.857C17.6417 127.764 18.041 127.694 18.5064 127.648C18.9719 127.601 19.5198 127.578 20.15 127.578H21.1812C21.6969 127.578 22.148 127.598 22.5348 127.637C22.9215 127.673 23.2545 127.732 23.5338 127.814C23.8131 127.893 24.044 127.993 24.2267 128.115C24.4129 128.233 24.5597 128.377 24.6671 128.545C24.7781 128.71 24.8551 128.898 24.898 129.109C24.941 129.32 24.9625 129.555 24.9625 129.812H23.9312C23.9312 129.49 23.8847 129.238 23.7916 129.055C23.6985 128.873 23.5445 128.736 23.3297 128.647C23.1148 128.554 22.832 128.497 22.4811 128.475C22.1301 128.45 21.6969 128.438 21.1812 128.438H20.15C19.4625 128.438 18.8967 128.463 18.4527 128.513C18.0087 128.559 17.6578 128.64 17.4 128.754C17.1422 128.869 16.9632 129.023 16.8629 129.216C16.7626 129.41 16.7125 129.651 16.7125 129.941C16.7125 130.12 16.725 130.28 16.7501 130.419C16.7752 130.559 16.8253 130.683 16.9005 130.79C16.9793 130.894 17.0885 130.982 17.2281 131.053C17.3678 131.125 17.5522 131.184 17.7813 131.23C18.0105 131.277 18.2898 131.311 18.6192 131.333C18.9522 131.35 19.3479 131.359 19.8062 131.359H21.2242ZM26.1313 127.75H27.1625V136H26.1313V127.75ZM35.2116 127.578C35.8418 127.578 36.3718 127.618 36.8015 127.696C37.2347 127.771 37.591 127.888 37.8703 128.045C38.1496 128.199 38.3645 128.395 38.5148 128.631C38.6652 128.867 38.7744 129.145 38.8425 129.463C38.9141 129.782 38.9553 130.142 38.966 130.543C38.9803 130.944 38.9875 131.388 38.9875 131.875C38.9875 132.362 38.9803 132.806 38.966 133.207C38.9553 133.608 38.9141 133.968 38.8425 134.287C38.7744 134.605 38.6652 134.883 38.5148 135.119C38.3645 135.355 38.1496 135.552 37.8703 135.71C37.591 135.864 37.2347 135.979 36.8015 136.054C36.3718 136.132 35.8418 136.172 35.2116 136.172H32.1071C31.4769 136.172 30.9452 136.132 30.5119 136.054C30.0822 135.979 29.7277 135.864 29.4484 135.71C29.1691 135.552 28.9525 135.355 28.7985 135.119C28.6481 134.883 28.5371 134.605 28.4655 134.287C28.3975 133.968 28.3581 133.608 28.3474 133.207C28.3366 132.806 28.3312 132.362 28.3312 131.875C28.3312 131.388 28.3366 130.944 28.3474 130.543C28.3581 130.142 28.3975 129.782 28.4655 129.463C28.5371 129.145 28.6481 128.867 28.7985 128.631C28.9525 128.395 29.1691 128.199 29.4484 128.045C29.7277 127.888 30.0822 127.771 30.5119 127.696C30.9452 127.618 31.4769 127.578 32.1071 127.578H35.2116ZM35.2116 135.312C35.6664 135.312 36.0495 135.3 36.361 135.275C36.6761 135.246 36.9357 135.191 37.1398 135.108C37.3439 135.026 37.5015 134.908 37.6125 134.754C37.7235 134.6 37.8041 134.396 37.8542 134.142C37.9043 133.887 37.933 133.576 37.9401 133.207C37.9509 132.835 37.9562 132.391 37.9562 131.875C37.9562 131.359 37.9509 130.917 37.9401 130.548C37.933 130.176 37.9043 129.863 37.8542 129.608C37.8041 129.354 37.7235 129.15 37.6125 128.996C37.5015 128.842 37.3439 128.724 37.1398 128.642C36.9393 128.559 36.6815 128.506 36.3664 128.48C36.0549 128.452 35.67 128.438 35.2116 128.438H32.1071C31.6488 128.438 31.2621 128.452 30.947 128.48C30.6354 128.506 30.3776 128.559 30.1735 128.642C29.9694 128.724 29.8119 128.842 29.7009 128.996C29.5899 129.15 29.5093 129.354 29.4592 129.608C29.409 129.863 29.3804 130.176 29.3732 130.548C29.3661 130.917 29.3625 131.359 29.3625 131.875C29.3625 132.391 29.3661 132.835 29.3732 133.207C29.384 133.576 29.4144 133.887 29.4646 134.142C29.5147 134.396 29.5935 134.6 29.7009 134.754C29.8119 134.908 29.9694 135.026 30.1735 135.108C30.3776 135.191 30.6354 135.246 30.947 135.275C31.2621 135.3 31.6488 135.312 32.1071 135.312H35.2116ZM41.1875 136H40.1562V127.75H41.9663L49.5288 134.969V127.75H50.5601V136H49.1851L41.1875 128.609V136ZM64.7279 127.75V128.609H60.6029V136H59.5717V128.609H55.4467V127.75H64.7279ZM65.8967 136V127.75H74.1467V128.609H66.9279V131.359H73.8029V132.219H66.9279V135.141H74.1467V136H65.8967ZM83.5601 130.328C83.5601 129.898 83.5135 129.558 83.4204 129.308C83.3273 129.057 83.1733 128.867 82.9585 128.738C82.7437 128.609 82.4608 128.527 82.1099 128.491C81.7625 128.455 81.3311 128.438 80.8154 128.438H78.4038C77.9455 128.438 77.5588 128.452 77.2437 128.48C76.9321 128.506 76.6743 128.559 76.4702 128.642C76.2661 128.724 76.1086 128.842 75.9976 128.996C75.8866 129.15 75.806 129.354 75.7559 129.608C75.7057 129.863 75.6771 130.176 75.6699 130.548C75.6628 130.917 75.6592 131.359 75.6592 131.875C75.6592 132.391 75.6628 132.835 75.6699 133.207C75.6807 133.576 75.7111 133.887 75.7612 134.142C75.8114 134.396 75.8901 134.6 75.9976 134.754C76.1086 134.908 76.2661 135.026 76.4702 135.108C76.6743 135.191 76.9321 135.246 77.2437 135.275C77.5588 135.3 77.9455 135.312 78.4038 135.312H80.8154C81.2165 135.312 81.562 135.302 81.8521 135.28C82.1421 135.259 82.3892 135.219 82.5933 135.162C82.7974 135.105 82.9621 135.026 83.0874 134.926C83.2127 134.826 83.3094 134.7 83.3774 134.55C83.4491 134.396 83.4974 134.213 83.5225 134.002C83.5475 133.787 83.5601 133.536 83.5601 133.25H84.5913C84.5913 133.594 84.5698 133.905 84.5269 134.185C84.4839 134.46 84.4069 134.707 84.2959 134.926C84.1885 135.141 84.0435 135.327 83.8608 135.484C83.6782 135.642 83.4473 135.773 83.168 135.876C82.8887 135.977 82.5557 136.05 82.1689 136.097C81.7822 136.147 81.3311 136.172 80.8154 136.172H78.4038C77.7736 136.172 77.2419 136.132 76.8086 136.054C76.3789 135.979 76.0244 135.864 75.7451 135.71C75.4658 135.552 75.2492 135.355 75.0952 135.119C74.9448 134.883 74.8338 134.605 74.7622 134.287C74.6942 133.968 74.6548 133.608 74.644 133.207C74.6333 132.806 74.6279 132.362 74.6279 131.875C74.6279 131.388 74.6333 130.944 74.644 130.543C74.6548 130.142 74.6942 129.782 74.7622 129.463C74.8338 129.145 74.9448 128.867 75.0952 128.631C75.2492 128.395 75.4658 128.199 75.7451 128.045C76.0244 127.888 76.3789 127.771 76.8086 127.696C77.2419 127.618 77.7736 127.578 78.4038 127.578H80.8154C81.3311 127.578 81.7822 127.603 82.1689 127.653C82.5557 127.7 82.8887 127.773 83.168 127.874C83.4473 127.97 83.6782 128.094 83.8608 128.244C84.0435 128.395 84.1885 128.572 84.2959 128.776C84.4069 128.98 84.4839 129.211 84.5269 129.469C84.5698 129.727 84.5913 130.013 84.5913 130.328H83.5601ZM94.3592 127.75H95.3904V136H94.3592V132.219H86.7967V136H85.7654V127.75H86.7967V131.359H94.3592V127.75ZM97.9342 136H96.9029V127.75H98.713L106.275 134.969V127.75H107.307V136H105.932L97.9342 128.609V136ZM115.361 127.578C115.991 127.578 116.521 127.618 116.951 127.696C117.384 127.771 117.741 127.888 118.02 128.045C118.299 128.199 118.514 128.395 118.664 128.631C118.815 128.867 118.924 129.145 118.992 129.463C119.064 129.782 119.105 130.142 119.116 130.543C119.13 130.944 119.137 131.388 119.137 131.875C119.137 132.362 119.13 132.806 119.116 133.207C119.105 133.608 119.064 133.968 118.992 134.287C118.924 134.605 118.815 134.883 118.664 135.119C118.514 135.355 118.299 135.552 118.02 135.71C117.741 135.864 117.384 135.979 116.951 136.054C116.521 136.132 115.991 136.172 115.361 136.172H112.257C111.627 136.172 111.095 136.132 110.662 136.054C110.232 135.979 109.877 135.864 109.598 135.71C109.319 135.552 109.102 135.355 108.948 135.119C108.798 134.883 108.687 134.605 108.615 134.287C108.547 133.968 108.508 133.608 108.497 133.207C108.486 132.806 108.481 132.362 108.481 131.875C108.481 131.388 108.486 130.944 108.497 130.543C108.508 130.142 108.547 129.782 108.615 129.463C108.687 129.145 108.798 128.867 108.948 128.631C109.102 128.395 109.319 128.199 109.598 128.045C109.877 127.888 110.232 127.771 110.662 127.696C111.095 127.618 111.627 127.578 112.257 127.578H115.361ZM115.361 135.312C115.816 135.312 116.199 135.3 116.511 135.275C116.826 135.246 117.085 135.191 117.289 135.108C117.494 135.026 117.651 134.908 117.762 134.754C117.873 134.6 117.954 134.396 118.004 134.142C118.054 133.887 118.083 133.576 118.09 133.207C118.1 132.835 118.106 132.391 118.106 131.875C118.106 131.359 118.1 130.917 118.09 130.548C118.083 130.176 118.054 129.863 118.004 129.608C117.954 129.354 117.873 129.15 117.762 128.996C117.651 128.842 117.494 128.724 117.289 128.642C117.089 128.559 116.831 128.506 116.516 128.48C116.204 128.452 115.82 128.438 115.361 128.438H112.257C111.798 128.438 111.412 128.452 111.097 128.48C110.785 128.506 110.527 128.559 110.323 128.642C110.119 128.724 109.961 128.842 109.85 128.996C109.739 129.15 109.659 129.354 109.609 129.608C109.559 129.863 109.53 130.176 109.523 130.548C109.516 130.917 109.512 131.359 109.512 131.875C109.512 132.391 109.516 132.835 109.523 133.207C109.534 133.576 109.564 133.887 109.614 134.142C109.664 134.396 109.743 134.6 109.85 134.754C109.961 134.908 110.119 135.026 110.323 135.108C110.527 135.191 110.785 135.246 111.097 135.275C111.412 135.3 111.798 135.312 112.257 135.312H115.361ZM120.306 136V127.75H121.337V135.141H127.868V136H120.306ZM135.23 127.578C135.86 127.578 136.39 127.618 136.82 127.696C137.253 127.771 137.609 127.888 137.889 128.045C138.168 128.199 138.383 128.395 138.533 128.631C138.684 128.867 138.793 129.145 138.861 129.463C138.932 129.782 138.974 130.142 138.984 130.543C138.999 130.944 139.006 131.388 139.006 131.875C139.006 132.362 138.999 132.806 138.984 133.207C138.974 133.608 138.932 133.968 138.861 134.287C138.793 134.605 138.684 134.883 138.533 135.119C138.383 135.355 138.168 135.552 137.889 135.71C137.609 135.864 137.253 135.979 136.82 136.054C136.39 136.132 135.86 136.172 135.23 136.172H132.125C131.495 136.172 130.964 136.132 130.53 136.054C130.101 135.979 129.746 135.864 129.467 135.71C129.188 135.552 128.971 135.355 128.817 135.119C128.667 134.883 128.556 134.605 128.484 134.287C128.416 133.968 128.376 133.608 128.366 133.207C128.355 132.806 128.35 132.362 128.35 131.875C128.35 131.388 128.355 130.944 128.366 130.543C128.376 130.142 128.416 129.782 128.484 129.463C128.556 129.145 128.667 128.867 128.817 128.631C128.971 128.395 129.188 128.199 129.467 128.045C129.746 127.888 130.101 127.771 130.53 127.696C130.964 127.618 131.495 127.578 132.125 127.578H135.23ZM135.23 135.312C135.685 135.312 136.068 135.3 136.379 135.275C136.694 135.246 136.954 135.191 137.158 135.108C137.362 135.026 137.52 134.908 137.631 134.754C137.742 134.6 137.822 134.396 137.873 134.142C137.923 133.887 137.951 133.576 137.958 133.207C137.969 132.835 137.975 132.391 137.975 131.875C137.975 131.359 137.969 130.917 137.958 130.548C137.951 130.176 137.923 129.863 137.873 129.608C137.822 129.354 137.742 129.15 137.631 128.996C137.52 128.842 137.362 128.724 137.158 128.642C136.958 128.559 136.7 128.506 136.385 128.48C136.073 128.452 135.688 128.438 135.23 128.438H132.125C131.667 128.438 131.28 128.452 130.965 128.48C130.654 128.506 130.396 128.559 130.192 128.642C129.988 128.724 129.83 128.842 129.719 128.996C129.608 129.15 129.528 129.354 129.478 129.608C129.427 129.863 129.399 130.176 129.392 130.548C129.384 130.917 129.381 131.359 129.381 131.875C129.381 132.391 129.384 132.835 129.392 133.207C129.402 133.576 129.433 133.887 129.483 134.142C129.533 134.396 129.612 134.6 129.719 134.754C129.83 134.908 129.988 135.026 130.192 135.108C130.396 135.191 130.654 135.246 130.965 135.275C131.28 135.3 131.667 135.312 132.125 135.312H135.23ZM149.117 130.328C149.117 129.898 149.071 129.558 148.978 129.308C148.885 129.057 148.731 128.867 148.516 128.738C148.301 128.609 148.018 128.527 147.667 128.491C147.316 128.455 146.883 128.438 146.367 128.438H143.607C143.148 128.438 142.762 128.452 142.447 128.48C142.135 128.506 141.877 128.559 141.673 128.642C141.469 128.724 141.311 128.842 141.2 128.996C141.089 129.15 141.009 129.354 140.959 129.608C140.909 129.863 140.88 130.176 140.873 130.548C140.866 130.917 140.862 131.359 140.862 131.875C140.862 132.391 140.866 132.835 140.873 133.207C140.884 133.576 140.914 133.887 140.964 134.142C141.014 134.396 141.093 134.6 141.2 134.754C141.311 134.908 141.469 135.026 141.673 135.108C141.877 135.191 142.135 135.246 142.447 135.275C142.762 135.3 143.148 135.312 143.607 135.312H146.373C146.774 135.312 147.119 135.302 147.409 135.28C147.7 135.259 147.947 135.219 148.151 135.162C148.355 135.105 148.519 135.026 148.645 134.926C148.77 134.826 148.867 134.7 148.935 134.55C149.006 134.396 149.055 134.213 149.08 134.002C149.105 133.787 149.117 133.536 149.117 133.25V132.734H144.982V131.875H150.149V133.25C150.149 133.594 150.127 133.905 150.084 134.185C150.041 134.46 149.964 134.707 149.853 134.926C149.746 135.141 149.601 135.327 149.418 135.484C149.236 135.642 149.005 135.773 148.725 135.876C148.446 135.977 148.113 136.05 147.726 136.097C147.34 136.147 146.888 136.172 146.373 136.172H143.607C142.977 136.172 142.445 136.132 142.012 136.054C141.582 135.979 141.227 135.864 140.948 135.71C140.669 135.552 140.452 135.355 140.298 135.119C140.148 134.883 140.037 134.605 139.965 134.287C139.897 133.968 139.858 133.608 139.847 133.207C139.836 132.806 139.831 132.362 139.831 131.875C139.831 131.388 139.836 130.944 139.847 130.543C139.858 130.142 139.897 129.782 139.965 129.463C140.037 129.145 140.148 128.867 140.298 128.631C140.452 128.395 140.669 128.199 140.948 128.045C141.227 127.888 141.582 127.771 142.012 127.696C142.445 127.618 142.977 127.578 143.607 127.578H146.367C146.883 127.578 147.334 127.603 147.721 127.653C148.108 127.7 148.441 127.773 148.72 127.874C148.999 127.97 149.23 128.094 149.413 128.244C149.599 128.395 149.746 128.572 149.853 128.776C149.964 128.98 150.041 129.211 150.084 129.469C150.127 129.727 150.149 130.013 150.149 130.328H149.117ZM150.979 127.75H152.354L156.135 131.789L159.917 127.75H161.292L156.651 132.562V136H155.62V132.562L150.979 127.75Z" fill="#1F354A"/>
<path opacity="0.99" d="M16.428 118.766V122.42C15.5 122.613 14.5913 122.758 13.702 122.855C12.8127 122.952 11.759 123 10.541 123C8.975 123 7.65067 122.865 6.568 122.594C5.50467 122.323 4.64433 121.85 3.987 121.173C3.349 120.477 2.885 119.501 2.595 118.244C2.305 116.987 2.16 115.373 2.16 113.401C2.16 111.506 2.305 109.95 2.595 108.732C2.885 107.514 3.349 106.576 3.987 105.919C4.64433 105.242 5.50467 104.778 6.568 104.527C7.65067 104.256 8.975 104.121 10.541 104.121C11.759 104.121 12.8127 104.169 13.702 104.266C14.5913 104.343 15.5 104.488 16.428 104.701V108.471L16.341 108.529C15.529 108.336 14.746 108.2 13.992 108.123C13.238 108.026 12.31 107.978 11.208 107.978C10.3187 107.978 9.584 108.046 9.004 108.181C8.44333 108.297 7.99867 108.539 7.67 108.906C7.34133 109.273 7.10933 109.815 6.974 110.53C6.858 111.245 6.8 112.202 6.8 113.401C6.8 114.658 6.858 115.673 6.974 116.446C7.10933 117.2 7.34133 117.77 7.67 118.157C7.99867 118.544 8.44333 118.805 9.004 118.94C9.584 119.075 10.3187 119.143 11.208 119.143C12.2907 119.143 13.209 119.114 13.963 119.056C14.7363 118.979 15.5097 118.843 16.283 118.65L16.428 118.766ZM35.7026 122.652V122.739H30.7726C30.6372 122.275 30.4729 121.743 30.2796 121.144C30.1056 120.545 29.9122 119.907 29.6996 119.23H23.4356C23.0489 120.583 22.6912 121.753 22.3626 122.739H17.4326V122.681L23.3776 104.382H29.7576L35.7026 122.652ZM26.5096 107.688C26.3162 108.674 26.0359 109.873 25.6686 111.284C25.3012 112.695 24.9146 114.136 24.5086 115.605H28.6556C28.2302 114.136 27.8339 112.695 27.4666 111.284C27.0992 109.873 26.8189 108.674 26.6256 107.688H26.5096ZM46.1249 121.811C45.7962 120.767 45.4579 119.655 45.1099 118.476C44.7812 117.297 44.4526 116.127 44.1239 114.967C43.7952 113.807 43.4956 112.724 43.2249 111.719C42.9542 110.714 42.7222 109.844 42.5289 109.109C42.3356 108.374 42.2002 107.852 42.1229 107.543L42.0069 107.572C42.0649 107.92 42.1132 108.384 42.1519 108.964C42.1906 109.525 42.2196 110.124 42.2389 110.762C42.2582 111.381 42.2679 111.951 42.2679 112.473V122.739H37.8309V104.382H45.6029C45.8736 105.407 46.1539 106.489 46.4439 107.63C46.7532 108.751 47.0529 109.873 47.3429 110.994C47.6522 112.096 47.9229 113.15 48.1549 114.155C48.3869 115.141 48.5512 116.001 48.6479 116.736H48.7059C48.8026 116.001 48.9572 115.141 49.1699 114.155C49.4019 113.169 49.6629 112.115 49.9529 110.994C50.2429 109.873 50.5426 108.751 50.8519 107.63C51.1612 106.489 51.4416 105.407 51.6929 104.382H59.3489V122.739H54.9699V112.473C54.9699 111.951 54.9796 111.381 54.9989 110.762C55.0182 110.124 55.0472 109.525 55.0859 108.964C55.1439 108.384 55.1922 107.92 55.2309 107.572L55.1149 107.543C55.0376 107.852 54.9022 108.374 54.7089 109.109C54.5156 109.844 54.2739 110.723 53.9839 111.748C53.7132 112.753 53.4136 113.836 53.0849 114.996C52.7562 116.156 52.4179 117.326 52.0699 118.505C51.7412 119.665 51.4222 120.767 51.1129 121.811H46.1249ZM78.4647 118.041C78.4647 119.588 77.9813 120.757 77.0147 121.55C76.0673 122.343 74.3853 122.739 71.9687 122.739H62.9207V104.382H64.0517H71.6787C73.2833 104.382 74.5303 104.556 75.4197 104.904C76.3283 105.233 76.9663 105.726 77.3337 106.383C77.701 107.04 77.8847 107.862 77.8847 108.848C77.8847 110.201 77.556 111.255 76.8987 112.009C76.2607 112.744 75.0523 113.188 73.2737 113.343V113.43C74.5883 113.527 75.6227 113.749 76.3767 114.097C77.1307 114.426 77.6623 114.909 77.9717 115.547C78.3003 116.185 78.4647 117.016 78.4647 118.041ZM70.4027 108.036H67.5607V111.632H70.4027C71.35 111.632 72.0363 111.516 72.4617 111.284C72.887 111.033 73.0997 110.549 73.0997 109.834C73.0997 109.138 72.887 108.664 72.4617 108.413C72.0363 108.162 71.35 108.036 70.4027 108.036ZM70.9827 115.431H67.5607V119.114H70.9827C71.93 119.114 72.6163 118.988 73.0417 118.737C73.467 118.466 73.6797 117.973 73.6797 117.258C73.6797 116.523 73.467 116.04 73.0417 115.808C72.6163 115.557 71.93 115.431 70.9827 115.431ZM85.714 122.739H81.074V104.382H89.832C92.1327 104.382 93.805 104.904 94.849 105.948C95.9123 106.973 96.444 108.49 96.444 110.501C96.444 112.009 96.067 113.304 95.313 114.387C94.559 115.45 93.5633 116.117 92.326 116.388L92.297 116.475C92.7803 116.784 93.312 117.297 93.892 118.012C94.472 118.727 95.0423 119.51 95.603 120.361C96.183 121.192 96.6953 121.975 97.14 122.71V122.739H91.746L88.614 118.099C88.3433 117.693 88.121 117.403 87.947 117.229C87.7923 117.055 87.599 116.949 87.367 116.91C87.1543 116.871 86.8063 116.852 86.323 116.852H85.714V122.739ZM89.078 108.152H85.714V113.082H89.078C90.0447 113.082 90.7117 112.889 91.079 112.502C91.4657 112.115 91.659 111.487 91.659 110.617C91.659 109.747 91.4657 109.119 91.079 108.732C90.7117 108.345 90.0447 108.152 89.078 108.152ZM104.405 122.739H99.7654V104.382H104.405V122.739ZM107.893 122.739V104.382H115.926C117.531 104.382 118.875 104.517 119.957 104.788C121.04 105.039 121.91 105.494 122.567 106.151C123.225 106.808 123.698 107.727 123.988 108.906C124.278 110.066 124.423 111.564 124.423 113.401C124.423 115.315 124.278 116.881 123.988 118.099C123.698 119.317 123.225 120.264 122.567 120.941C121.91 121.618 121.04 122.091 119.957 122.362C118.875 122.613 117.531 122.739 115.926 122.739H107.893ZM115.259 108.297H112.533V118.824H115.259C116.381 118.824 117.26 118.698 117.898 118.447C118.556 118.196 119.02 117.683 119.29 116.91C119.58 116.137 119.725 114.967 119.725 113.401C119.725 111.912 119.58 110.81 119.29 110.095C119.02 109.36 118.556 108.877 117.898 108.645C117.26 108.413 116.381 108.297 115.259 108.297ZM139.066 117.316C139.066 116.678 139.095 116.098 139.153 115.576L139.095 115.489C138.554 115.566 137.964 115.624 137.326 115.663C136.688 115.682 136.098 115.682 135.557 115.663V111.893L143.126 111.864V121.724C142.237 122.13 141.222 122.449 140.081 122.681C138.96 122.894 137.529 123 135.789 123C133.469 123 131.652 122.691 130.337 122.072C129.022 121.434 128.094 120.419 127.553 119.027C127.012 117.616 126.741 115.74 126.741 113.401C126.741 111.506 126.954 109.95 127.379 108.732C127.824 107.514 128.462 106.576 129.293 105.919C130.144 105.242 131.178 104.778 132.396 104.527C133.614 104.256 135.006 104.121 136.572 104.121C137.5 104.121 138.428 104.16 139.356 104.237C140.303 104.314 141.241 104.459 142.169 104.672V108.5L142.082 108.558C141.27 108.365 140.458 108.229 139.646 108.152C138.853 108.075 138.051 108.036 137.239 108.036C136.06 108.036 135.025 108.162 134.136 108.413C133.266 108.645 132.589 109.138 132.106 109.892C131.623 110.646 131.381 111.816 131.381 113.401C131.381 114.967 131.507 116.166 131.758 116.997C132.029 117.809 132.522 118.37 133.237 118.679C133.972 118.969 135.016 119.114 136.369 119.114C136.543 119.114 136.814 119.114 137.181 119.114C137.548 119.095 137.916 119.075 138.283 119.056C138.65 119.037 138.911 119.008 139.066 118.969V117.316ZM146.324 122.739V104.382H159.954V108.152H150.964V111.632H158.765V115.402H150.964V118.969H159.954V122.739H146.324Z" fill="#1F354A"/>
<defs>
<linearGradient id="paint0_linear_29_76" x1="126.061" y1="-0.479168" x2="36.2478" y2="0.0317533" gradientUnits="userSpaceOnUse">
<stop stop-color="#FF6FBD"/>
<stop offset="1" stop-color="#D8368E"/>
</linearGradient>
<radialGradient id="paint1_radial_29_76" cx="0" cy="0" r="1" gradientUnits="userSpaceOnUse" gradientTransform="translate(35 92) scale(92 92)">
<stop stop-color="#1878D0"/>
<stop offset="0.942708" stop-color="#1878D0" stop-opacity="0"/>
</radialGradient>
<radialGradient id="paint2_radial_29_76" cx="0" cy="0" r="1" gradientUnits="userSpaceOnUse" gradientTransform="translate(117.656 89.8437) rotate(-111) scale(79.555 79.555)">
<stop stop-color="#41DAFC"/>
<stop offset="0.168161" stop-color="#4AD1F5" stop-opacity="0.822917"/>
<stop offset="1" stop-color="#72A6D6" stop-opacity="0"/>
</radialGradient>
</defs>
</svg>
